<?xml version="1.0" encoding="UTF-8"?>
<svg version="1.1" xmlns="http://www.w3.org/2000/svg" width="1408" height="768">
<path d="M0 0 C464.64 0 929.28 0 1408 0 C1408 253.44 1408 506.88 1408 768 C943.36 768 478.72 768 0 768 C0 514.56 0 261.12 0 0 Z " fill="#F6F9F8" transform="translate(0,0)"/>
<path d="M0 0 C-1.65191265 15.43428837 -4.38634014 30.70635604 -7 46 C-8.11677492 45.05052441 -9.23244654 44.09975103 -10.34765625 43.1484375 C-10.96906494 42.61911621 -11.59047363 42.08979492 -12.23071289 41.54443359 C-14.2481965 39.78334607 -16.14412108 37.93011408 -18 36 C-21.19445695 37.39713612 -23.18934812 39.02532898 -25.5625 41.5625 C-28.55187317 44.63963459 -31.62377061 47.35486389 -35 50 C-40.05909681 54.06282216 -44.66517245 58.47343509 -49.25 63.0625 C-50.24193359 64.0534668 -50.24193359 64.0534668 -51.25390625 65.06445312 C-55.12595366 68.97917841 -58.82012602 73.00304033 -62.39941406 77.18725586 C-64.03222409 79.03649541 -65.73894156 80.77315196 -67.5 82.5 C-69.79326036 84.75797943 -71.96428028 87.05996504 -74.0625 89.5 C-78.13011264 94.22100743 -82.40225386 98.74578359 -86.67407227 103.28125 C-91.21295448 108.11314947 -95.59026389 113.03904688 -100 118 C-82.18 118.33 -64.36 118.66 -46 119 C-45.01 127.91 -45.01 127.91 -44 137 C-38.38573949 154.96563362 -28.56141195 165.74654293 -12.23013306 174.48149109 C-0.98786362 179.76656326 11.50373243 179.46705601 23.6484375 179.51171875 C25.39964013 179.52860678 27.15083094 179.54676239 28.90200806 179.56611633 C33.46220198 179.61317549 38.02234801 179.64326773 42.58270264 179.66955566 C47.25575216 179.69958641 51.92863717 179.74603801 56.6015625 179.79101562 C65.73428815 179.87654566 74.86704814 179.94411177 84 180 C84 181.32 84 182.64 84 184 C72.65501305 184.11645119 61.31017101 184.20499598 49.96470547 184.25906086 C44.69508513 184.28502473 39.42587721 184.32017821 34.15649414 184.37719727 C29.06007464 184.43199224 23.96404887 184.46151955 18.86735725 184.47438622 C16.93430455 184.48354163 15.00127053 184.50141713 13.06838799 184.52865028 C-6.78552972 184.79695652 -23.8684915 180.4029989 -38.83984375 166.35546875 C-46.08708424 158.4529624 -55 147.03507317 -55 136 C-80.08 136 -105.16 136 -131 136 C-131 122 -131 122 -128 117.65625 C-126.68751958 116.41507133 -125.35324245 115.19660528 -124 114 C-122.67582102 112.60474183 -121.36348272 111.19816188 -120.0625 109.78125 C-118.03152505 107.63657182 -115.99623697 105.49604233 -113.9609375 103.35546875 C-110.12389903 99.30361538 -106.38967315 95.18859327 -102.73291016 90.97363281 C-99.79070879 87.62272328 -96.7417887 84.37354737 -93.6875 81.125 C-93.04031006 80.43535156 -92.39312012 79.74570312 -91.72631836 79.03515625 C-86.58920181 73.58138995 -81.35459278 68.2412014 -76 63 C-77.90930298 63.24447876 -77.90930298 63.24447876 -79.85717773 63.49389648 C-85.01341339 64.06440761 -90.10218418 64.1275748 -95.28515625 64.09765625 C-96.22685165 64.0962413 -97.16854706 64.09482635 -98.13877869 64.09336853 C-101.11338632 64.08782122 -104.08791555 64.07527887 -107.0625 64.0625 C-109.09309786 64.05747818 -111.12369692 64.05291647 -113.15429688 64.04882812 C-118.10289428 64.03786912 -123.0514339 64.02064152 -128 64 C-128 58.39 -128 52.78 -128 47 C-126.20151611 46.970271 -126.20151611 46.970271 -124.36669922 46.93994141 C-119.85251366 46.86298045 -115.3386132 46.77441525 -110.82470703 46.68261719 C-108.88335868 46.64469646 -106.94194883 46.60978463 -105.00048828 46.578125 C-77.12129644 46.11802488 -55.49461394 42.09489629 -35 22 C-36.42291258 18.54007572 -38.05963093 16.97351431 -41.125 14.875 C-43.3203125 13.3671875 -43.3203125 13.3671875 -45 12 C-45 11.34 -45 10.68 -45 10 C-39.55806606 8.56650752 -34.1137344 7.14265236 -28.66699219 5.72753906 C-26.81572136 5.24513376 -24.96512417 4.76013535 -23.11523438 4.27246094 C-20.45096361 3.57058316 -17.78438268 2.87816984 -15.1171875 2.1875 C-14.29507782 1.96876221 -13.47296814 1.75002441 -12.62594604 1.5246582 C-8.31010101 0.41738861 -4.49794246 -0.2530488 0 0 Z " fill="#1C2E44" transform="translate(894,295)"/>
<path d="M0 0 C1.3755311 0.65190877 2.7297801 1.34917192 4.0703125 2.0703125 C11.83772075 6.03826872 19.97158445 9.13830914 28.0625 12.375 C30.45040469 13.33454112 32.83782613 14.29527682 35.22518921 15.25616455 C36.79874383 15.88942409 38.37249277 16.522201 39.94644165 17.15447998 C47.98472582 20.38679592 55.99442378 23.68765683 64 27 C64 27.66 64 28.32 64 29 C59.38 30.98 54.76 32.96 50 35 C49.97287675 37.87506421 49.95310149 40.74986908 49.9375 43.625 C49.92493164 44.83736328 49.92493164 44.83736328 49.91210938 46.07421875 C49.89405913 50.51457846 50.17117234 54.6209184 51 59 C51 61.33333333 51 63.66666667 51 66 C51.2528586 68.40021162 51.55064846 70.78867394 51.87890625 73.1796875 C51.93884766 74.08074219 51.93884766 74.08074219 52 75 C51 76 51 76 48.93359375 76.09765625 C48.10988281 76.08605469 47.28617188 76.07445312 46.4375 76.0625 C45.19806641 76.04896484 45.19806641 76.04896484 43.93359375 76.03515625 C42.97646484 76.01775391 42.97646484 76.01775391 42 76 C41.85531973 69.34470749 42.32271271 62.77270187 43.5 56.21484375 C44.10060735 52.35312621 44.3474503 48.52409786 44.5625 44.625 C44.62727539 43.52091797 44.62727539 43.52091797 44.69335938 42.39453125 C44.79843799 40.59651932 44.89962093 38.79828042 45 37 C44.38511719 37.28875 43.77023437 37.5775 43.13671875 37.875 C42.32847656 38.24625 41.52023437 38.6175 40.6875 39 C39.88699219 39.37125 39.08648438 39.7425 38.26171875 40.125 C36 41 36 41 33 41 C33.0314209 41.64026123 33.0628418 42.28052246 33.09521484 42.94018555 C33.22033061 45.85559413 33.29809065 48.77043809 33.375 51.6875 C33.42527344 52.69490234 33.47554687 53.70230469 33.52734375 54.74023438 C33.67072268 61.98087054 33.67072268 61.98087054 31.86401367 64.72607422 C28.59104696 67.61110587 24.61209955 69.25266907 20.5625 70.75 C19.49128906 71.15734375 18.42007813 71.5646875 17.31640625 71.984375 C1.131598 76.94085338 -18.46287236 75.21595574 -33.37109375 67.6328125 C-38.2451772 64.60552144 -38.2451772 64.60552144 -40 62 C-40.48495748 58.40371199 -40.37533077 54.87013098 -40.25 51.25 C-40.23195313 50.26644531 -40.21390625 49.28289062 -40.1953125 48.26953125 C-40.14824126 45.84536217 -40.08250742 43.42317941 -40 41 C-40.70737305 40.87995605 -41.41474609 40.75991211 -42.14355469 40.63623047 C-47.40486501 39.46435229 -52.28291048 37.1829608 -57.25 35.125 C-58.920625 34.45404297 -58.920625 34.45404297 -60.625 33.76953125 C-61.68203125 33.33253906 -62.7390625 32.89554687 -63.828125 32.4453125 C-64.7965332 32.04844238 -65.76494141 31.65157227 -66.76269531 31.24267578 C-69 30 -69 30 -70 27 C-52.0091352 19.23164324 -33.95937239 11.62699328 -15.83422852 4.17724609 C-13.49507644 3.20563861 -11.17079904 2.2092246 -8.8515625 1.19140625 C-5.4341094 -0.23643375 -3.6760467 -0.57663478 0 0 Z " fill="#F2B004" transform="translate(564,263)"/>
<path d="M0 0 C7.42227544 5.4963789 11.9008104 11.30843884 14.3671875 20.234375 C15.50636154 32.15373289 14.45794655 42.65970506 7.1171875 52.609375 C-1.94785034 61.26236566 -11.49968783 64.82451934 -23.9453125 64.734375 C-25.32626099 64.72579468 -25.32626099 64.72579468 -26.73510742 64.71704102 C-37.03801443 64.44760689 -45.35406422 61.45327179 -52.8828125 54.25390625 C-60.5907107 45.35885409 -63.16766576 36.3724714 -62.93359375 24.73046875 C-62.06659588 14.65302595 -56.89473979 7.9921685 -49.6328125 1.234375 C-36.47383315 -9.30762159 -13.66639519 -9.16500093 0 0 Z " fill="#1D2E44" transform="translate(920.6328125,367.765625)"/>
<path d="M0 0 C0.87430664 -0.00644531 1.74861328 -0.01289063 2.64941406 -0.01953125 C12.76397901 0.17767812 21.68064163 2.88004666 29.4375 9.5 C37.51524559 17.96986917 39.95985816 25.41140189 39.93212891 36.9934082 C39.60964816 46.37102494 36.27261221 54.97557471 29.4375 61.5 C20.7071067 68.40587751 12.19888368 71.08020875 1.125 71 C-0.25594849 70.99141968 -0.25594849 70.99141968 -1.66479492 70.98266602 C-12.08444161 70.710179 -20.2741513 67.65145957 -27.87890625 60.39453125 C-30.57897978 57.35616545 -32.72918314 54.12399844 -34.5625 50.5 C-34.92601562 49.79230469 -35.28953125 49.08460938 -35.6640625 48.35546875 C-38.4833769 39.3949521 -38.04664255 27.23421837 -34.125 18.75 C-30.80638322 13.25257174 -26.82874801 9.14845662 -21.5625 5.5 C-20.43134766 4.70916016 -20.43134766 4.70916016 -19.27734375 3.90234375 C-13.04738665 0.35788321 -7.00778193 0.04912571 0 0 Z " fill="#1C2D44" transform="translate(627.5625,361.5)"/>
<path d="M0 0 C1.70107782 1.050379 3.37485103 2.14808914 5 3.3125 C5.60585937 3.69535156 6.21171875 4.07820313 6.8359375 4.47265625 C12.47156782 8.46336909 16.43648413 15.64842181 18.375 22.1875 C19.18080852 27.50583624 19 32.93346405 19 38.3125 C1.51 38.3125 -15.98 38.3125 -34 38.3125 C-30.96932724 44.37384552 -29.31502965 46.73391445 -23.375 49.5625 C-15.59681148 51.29098634 -9.07771011 50.99040864 -1.97265625 47.28515625 C1.89976559 45.3757839 1.89976559 45.3757839 4 45.3125 C6.578125 47.40234375 6.578125 47.40234375 9.25 50.25 C10.14203125 51.18714844 11.0340625 52.12429688 11.953125 53.08984375 C12.62859375 53.82332031 13.3040625 54.55679688 14 55.3125 C12.54339844 59.01002704 10.76401795 60.43346771 7.375 62.4375 C6.55773438 62.93507813 5.74046875 63.43265625 4.8984375 63.9453125 C-5.61207353 68.90310072 -19.57726791 69.11218426 -30.75390625 66.40234375 C-33.68690558 65.23738489 -36.30181892 63.94435992 -39 62.3125 C-40.13115234 61.64347656 -40.13115234 61.64347656 -41.28515625 60.9609375 C-47.83653052 56.57702724 -52.6822164 49.85051694 -55 42.3125 C-56.37976265 30.91673218 -56.18629 19.74079369 -49 10.3125 C-46.26428856 7.15794901 -43.42759362 4.69094237 -40 2.3125 C-39.2575 1.78527344 -38.515 1.25804687 -37.75 0.71484375 C-27.28908062 -5.30353775 -10.79045808 -5.21291217 0 0 Z " fill="#1F3045" transform="translate(1087,364.6875)"/>
<path d="M0 0 C6.93 0 13.86 0 21 0 C21 22.77 21 45.54 21 69 C14.73 69 8.46 69 2 69 C1.505 65.535 1.505 65.535 1 62 C0.40832031 62.40992188 -0.18335938 62.81984375 -0.79296875 63.2421875 C-1.58316406 63.78101563 -2.37335938 64.31984375 -3.1875 64.875 C-3.96480469 65.40867187 -4.74210937 65.94234375 -5.54296875 66.4921875 C-12.95852096 71.04290793 -20.58665711 70.67207177 -29 70 C-32.3919333 69.13566438 -35.070971 67.89599512 -38 66 C-39.051875 65.34 -40.10375 64.68 -41.1875 64 C-48.15517147 57.39586972 -50.30927886 49.78029882 -50.56895447 40.48522949 C-50.59808285 35.07033356 -50.50094353 29.66319545 -50.375 24.25 C-50.34485741 21.99222313 -50.31748922 19.73440743 -50.29296875 17.4765625 C-50.22732763 11.98340484 -50.12404061 6.4921366 -50 1 C-43.4 1 -36.8 1 -30 1 C-29.96261719 3.63871094 -29.92523438 6.27742188 -29.88671875 8.99609375 C-29.84038556 11.577798 -29.78919503 14.159364 -29.73754883 16.7409668 C-29.70448362 18.52245543 -29.67639558 20.30404418 -29.65356445 22.08569336 C-29.61967693 24.66042386 -29.56734857 27.2342518 -29.51171875 29.80859375 C-29.50532883 30.59334579 -29.4989389 31.37809784 -29.49235535 32.18663025 C-29.32984298 38.42721251 -28.45579966 45.20028091 -24.21484375 50.03515625 C-21.23641913 51.33263576 -18.8066821 51.4337495 -15.5625 51.4375 C-14.45003906 51.45683594 -13.33757812 51.47617187 -12.19140625 51.49609375 C-8.23936849 50.8817623 -6.73938157 49.89913967 -4 47 C-1.06274347 41.41671887 -0.53589573 36.81688541 -0.48828125 30.56640625 C-0.47033005 29.68846909 -0.45237885 28.81053192 -0.43388367 27.9059906 C-0.38006321 25.12487471 -0.34597636 22.34392763 -0.3125 19.5625 C-0.27930192 17.66729436 -0.24480997 15.77211092 -0.20898438 13.87695312 C-0.12193673 9.2512816 -0.06162811 4.62635813 0 0 Z " fill="#1D2F44" transform="translate(429,362)"/>
<path d="M0 0 C6.07949136 4.30805336 9.40309318 9.11290445 11.3125 16.3125 C11.5838451 20.08241512 11.5452803 23.83922715 11.5078125 27.6171875 C11.5049826 28.69630402 11.50215271 29.77542053 11.49923706 30.88723755 C11.4880766 34.32077299 11.4629793 37.75404391 11.4375 41.1875 C11.42746487 43.52082956 11.41833995 45.85416322 11.41015625 48.1875 C11.38815075 53.89593466 11.35364908 59.60417254 11.3125 65.3125 C4.7125 65.3125 -1.8875 65.3125 -8.6875 65.3125 C-8.72488281 62.5178125 -8.76226563 59.723125 -8.80078125 56.84375 C-8.8470836 54.11645997 -8.89828549 51.38930246 -8.94995117 48.66210938 C-8.98306404 46.77677565 -9.01113782 44.89134604 -9.03393555 43.00585938 C-9.06773376 40.28474328 -9.1200603 37.56449512 -9.17578125 34.84375 C-9.18217117 34.01008911 -9.1885611 33.17642822 -9.19514465 32.31750488 C-9.34851302 26.11722466 -10.10430978 19.89569022 -14.6875 15.3125 C-20.60151994 13.34116002 -26.40067223 13.31461152 -32.125 15.8125 C-37.18964209 20.75361423 -39.11619843 26.16353957 -39.29315186 33.16503906 C-39.29499481 34.38271973 -39.29499481 34.38271973 -39.296875 35.625 C-39.31341125 36.47932617 -39.32994751 37.33365234 -39.34698486 38.21386719 C-39.3951482 40.91348688 -39.4167645 43.61254466 -39.4375 46.3125 C-39.46568628 48.15497571 -39.49561739 49.9974256 -39.52734375 51.83984375 C-39.60414986 56.33097974 -39.64496107 60.82038934 -39.6875 65.3125 C-46.2875 65.3125 -52.8875 65.3125 -59.6875 65.3125 C-59.6875 42.5425 -59.6875 19.7725 -59.6875 -3.6875 C-53.4175 -3.6875 -47.1475 -3.6875 -40.6875 -3.6875 C-40.3575 -1.0475 -40.0275 1.5925 -39.6875 4.3125 C-39.22601562 3.91417969 -38.76453125 3.51585937 -38.2890625 3.10546875 C-27.04522274 -6.02737342 -12.47884599 -7.73482189 0 0 Z " fill="#1B2D43" transform="translate(1007.6875,365.6875)"/>
<path d="M0 0 C1.12776855 0.00241699 1.12776855 0.00241699 2.27832031 0.00488281 C8.14710533 0.13439732 12.70440846 1.1359905 17.6875 4.375 C19.04875 5.179375 19.04875 5.179375 20.4375 6 C28.43309495 14.43979467 28.84656621 24.66209294 28.78515625 35.68359375 C28.7837413 36.65031509 28.78232635 37.61703644 28.78086853 38.61305237 C28.77530221 41.67956732 28.76275599 44.74600738 28.75 47.8125 C28.74498065 49.90038957 28.7404185 51.98828028 28.73632812 54.07617188 C28.72619769 59.17583283 28.70661579 64.27533327 28.6875 69.375 C22.0875 69.375 15.4875 69.375 8.6875 69.375 C8.63142578 65.29125 8.63142578 65.29125 8.57421875 61.125 C8.52791207 58.46720679 8.47671179 55.80954933 8.42504883 53.15185547 C8.39194262 51.31502642 8.36386683 49.47809914 8.34106445 47.64111328 C8.30725369 44.98948589 8.25492707 42.33874717 8.19921875 39.6875 C8.19282883 38.87571289 8.1864389 38.06392578 8.17985535 37.22753906 C8.02944049 31.29879841 7.26621212 25.40330622 3.27153015 20.7121582 C-0.24112535 17.74695194 -4.44399948 18.03558442 -8.80859375 18.10546875 C-12.63843552 18.51772941 -14.5384836 19.73307962 -17.3125 22.375 C-21.05118441 27.98929716 -21.91183373 33.0530221 -21.921875 39.6875 C-21.93841125 40.54182617 -21.95494751 41.39615234 -21.97198486 42.27636719 C-22.0201482 44.97598688 -22.0417645 47.67504466 -22.0625 50.375 C-22.09068628 52.21747571 -22.12061739 54.0599256 -22.15234375 55.90234375 C-22.22914986 60.39347974 -22.26996107 64.88288934 -22.3125 69.375 C-28.9125 69.375 -35.5125 69.375 -42.3125 69.375 C-42.3125 46.935 -42.3125 24.495 -42.3125 1.375 C-36.0425 1.375 -29.7725 1.375 -23.3125 1.375 C-22.9825 3.685 -22.6525 5.995 -22.3125 8.375 C-21.80460938 7.96507812 -21.29671875 7.55515625 -20.7734375 7.1328125 C-19.74089844 6.32457031 -19.74089844 6.32457031 -18.6875 5.5 C-18.01460937 4.96632813 -17.34171875 4.43265625 -16.6484375 3.8828125 C-11.3367731 0.45421307 -6.14302559 -0.01365724 0 0 Z " fill="#1B2D44" transform="translate(722.3125,361.625)"/>
<path d="M0 0 C26.07 0 52.14 0 79 0 C79 5.61 79 11.22 79 17 C69.43 17 59.86 17 50 17 C50 40.76 50 64.52 50 89 C43.07 89 36.14 89 29 89 C29 65.24 29 41.48 29 17 C19.43 17 9.86 17 0 17 C0 11.39 0 5.78 0 0 Z " fill="#1C2F47" transform="translate(299,342)"/>
<path d="M0 0 C4.846875 -0.103125 9.69375 -0.20625 14.6875 -0.3125 C16.93759888 -0.38078003 16.93759888 -0.38078003 19.2331543 -0.45043945 C29.79921498 -0.55803681 39.87446852 0.98529493 48.0625 8.25 C54.25735876 15.44651503 55.6365361 22.21551332 55.3125 31.6328125 C54.61580979 39.13964947 52.42197712 44.65363668 47.234375 50.20703125 C33.83857993 60.95645421 15.95968964 58 0 58 C0 38.86 0 19.72 0 0 Z " fill="#243448" transform="translate(1054,447)"/>
<path d="M0 0 C5.259375 -0.0825 10.51875 -0.165 15.9375 -0.25 C17.578396 -0.28641602 19.21929199 -0.32283203 20.90991211 -0.36035156 C29.46498502 -0.42522217 36.6414604 -0.16198026 43.63671875 5.27124023 C46.43415574 8.04999571 47.35504337 10.62548451 47.5625 14.4375 C47.29697776 19.19276195 45.73201138 22.14304276 43 26 C42.01 26.495 42.01 26.495 41 27 C41.928125 27.70125 42.85625 28.4025 43.8125 29.125 C47.41653328 32.16670185 49.54200302 35.17851241 50.31640625 39.94921875 C50.61900774 45.07392136 49.42257142 48.03702257 46 52 C40.10771382 56.44927732 35.82055517 57.14471418 28.61328125 57.09765625 C27.88894897 57.09664917 27.1646167 57.09564209 26.41833496 57.09460449 C23.71637384 57.08937826 21.0144353 57.07541698 18.3125 57.0625 C12.269375 57.041875 6.22625 57.02125 0 57 C0 38.19 0 19.38 0 0 Z " fill="#192A3F" transform="translate(994,447)"/>
<path d="M0 0 C6.93 0 13.86 0 21 0 C21 5.94 21 11.88 21 18 C26.61 18 32.22 18 38 18 C38 23.28 38 28.56 38 34 C32.39 34 26.78 34 21 34 C21.05109664 38.34321402 21.11406994 42.68286823 21.20751953 47.02490234 C21.23570088 48.50102196 21.25692966 49.97729169 21.27099609 51.45361328 C21.29246698 53.57923057 21.33913043 55.70304879 21.390625 57.828125 C21.41157227 59.1059082 21.43251953 60.38369141 21.45410156 61.70019531 C22.08613113 65.52063882 22.88937175 66.75459809 26 69 C30.22417166 69.38401561 33.88184564 68.86883874 38 68 C38.83986084 69.93467942 39.67168027 71.87285129 40.5 73.8125 C40.9640625 74.89144531 41.428125 75.97039062 41.90625 77.08203125 C43 80 43 80 43 83 C34.07938897 86.82311901 22.66980466 87.98769857 13.3125 84.75 C6.25524963 81.02164131 2.93419554 76.86772566 0.45629883 69.35058594 C-0.18745307 66.03435092 -0.12241417 62.75412795 -0.09765625 59.390625 C-0.0962413 58.66381531 -0.09482635 57.93700562 -0.09336853 57.18817139 C-0.08778792 54.87540506 -0.07523904 52.56273688 -0.0625 50.25 C-0.05748249 48.67838682 -0.05292002 47.10677211 -0.04882812 45.53515625 C-0.03782485 41.69006657 -0.02057361 37.8450499 0 34 C-3.3 34 -6.6 34 -10 34 C-10 28.72 -10 23.44 -10 18 C-6.7 18 -3.4 18 0 18 C0 12.06 0 6.12 0 0 Z " fill="#1D2F46" transform="translate(504,346)"/>
<path d="M0 0 C3.485625 -0.061875 6.97125 -0.12375 10.5625 -0.1875 C12.18973999 -0.22846802 12.18973999 -0.22846802 13.84985352 -0.27026367 C21.17657579 -0.33294283 26.05285092 0.45473488 31.75 5.375 C37.01978725 11.52308512 37.70251291 16.35435658 37.40625 24.32421875 C36.85359834 29.32465348 35.61613032 32.49633306 32 36 C21.38341309 44.19997082 15.64642364 42 0 42 C0 28.14 0 14.28 0 0 Z " fill="#F7F9F6" transform="translate(1063,455)"/>
<path d="M0 0 C6.6 0 13.2 0 20 0 C20 22.77 20 45.54 20 69 C13.4 69 6.8 69 0 69 C0 46.23 0 23.46 0 0 Z " fill="#1A2D45" transform="translate(464,362)"/>
<path d="M0 0 C6.6 0 13.2 0 20 0 C20 22.44 20 44.88 20 68 C13.4 68 6.8 68 0 68 C0 45.56 0 23.12 0 0 Z " fill="#1A2D45" transform="translate(557,363)"/>
<path d="M0 0 C4.42775396 2.55924179 7.09707098 5.64069477 8.75 10.5 C9.59359987 17.14334898 9.92052428 23.93930096 5.75 29.5 C-0.08341733 35.17785953 -4.04363878 35.85671968 -12.04296875 35.77734375 C-16.19217975 35.41852039 -18.26998713 34.40360228 -21.25 31.5 C-25.64501136 25.79836364 -26.67067389 21.17384219 -26.59765625 14.1015625 C-25.85301177 8.52927912 -22.63554477 4.78657728 -18.625 1.0625 C-12.97393254 -2.65530754 -6.13405938 -2.64218497 0 0 Z " fill="#F8FAF8" transform="translate(905.25,379.5)"/>
<path d="M0 0 C4.93755107 1.81995684 9.00291435 4.97256013 11.37890625 9.77734375 C13.08945255 15.89873269 12.80578196 22.49312278 10.875 28.5 C8.16449825 32.11400234 5.08519673 34.95740163 1 37 C-11.1591273 38.19040407 -11.1591273 38.19040407 -16.0625 35 C-20.32395515 31.20497278 -22.54553951 26.94113109 -23.4140625 21.3203125 C-23.76754238 14.60419481 -22.41601771 10.0880204 -18 5 C-12.21622825 -0.24574647 -7.68587427 -0.9023901 0 0 Z " fill="#F9FAF9" transform="translate(634,378)"/>
<path d="M0 0 C4.2501688 -0.05387538 8.49965671 -0.09361561 12.75 -0.125 C13.9565625 -0.14175781 15.163125 -0.15851563 16.40625 -0.17578125 C17.56640625 -0.18222656 18.7265625 -0.18867188 19.921875 -0.1953125 C20.99018555 -0.20578613 22.05849609 -0.21625977 23.15917969 -0.22705078 C26.01061257 0.0008482 27.61671711 0.46025398 30 2 C32.3020949 5.22293286 32.47510654 8.11996324 32 12 C29.84909549 15.33761045 28.79587201 16.73470933 25 18 C23.08093083 18.08266486 21.15910526 18.10740663 19.23828125 18.09765625 C18.12001953 18.09443359 17.00175781 18.09121094 15.84960938 18.08789062 C14.68236328 18.07951172 13.51511719 18.07113281 12.3125 18.0625 C11.13365234 18.05798828 9.95480469 18.05347656 8.74023438 18.04882812 C5.82680133 18.03703285 2.91339433 18.01909727 0 18 C0 12.06 0 6.12 0 0 Z " fill="#F7FAF7" transform="translate(1003,479)"/>
<path d="M0 0 C3.70911942 -0.1082077 7.41506456 -0.18742278 11.125 -0.25 C12.17171875 -0.28351563 13.2184375 -0.31703125 14.296875 -0.3515625 C20.54844879 -0.43069635 24.2436321 -0.19585317 29 4 C30 5 30 5 30.375 8.8125 C30.34972958 12.33772312 30.23473948 12.75908317 27.625 15.4375 C23.91482566 17.64593711 22.08157831 18.12132735 17.7734375 18.09765625 C16.7421875 18.09443359 15.7109375 18.09121094 14.6484375 18.08789062 C13.02808594 18.07532227 13.02808594 18.07532227 11.375 18.0625 C9.74304688 18.05573242 9.74304688 18.05573242 8.078125 18.04882812 C5.38539338 18.0370179 2.69268991 18.01908205 0 18 C0 12.06 0 6.12 0 0 Z " fill="#EAEDEC" transform="translate(1002,454)"/>
<path d="M0 0 C2.98378244 2.06023073 4.22727689 3.4734948 5.625 6.8125 C6.22366575 10.83211286 5.80971519 12.48128655 3.8125 16.0625 C1.35654597 19.14998507 -0.14603527 20.66194307 -4.1171875 21.1484375 C-12.58653511 21.25404034 -12.58653511 21.25404034 -16.5 19.0625 C-19.12793401 15.90897919 -20.21554596 14.03498101 -20.75 9.9375 C-20.27041545 5.94096204 -18.90760567 3.90790692 -16.375 0.8125 C-11.19240684 -2.3859623 -5.5883229 -1.96626176 0 0 Z " fill="#1B2C41" transform="translate(481.375,332.1875)"/>
<path d="M0 0 C-0.33 0.99 -0.66 1.98 -1 3 C-0.34 3.66 0.32 4.32 1 5 C1 5.66 1 6.32 1 7 C1.763125 7.5775 2.52625 8.155 3.3125 8.75 C6.80823157 11.67665899 8.57342075 14.39890699 9.3203125 18.953125 C9.6136431 24.07663282 8.42257501 27.03701841 5 31 C-2.38603485 37.07296198 -10.268635 36.10005529 -19.3125 35.625 C-20.31345703 35.58117187 -21.31441406 35.53734375 -22.34570312 35.4921875 C-29.73400103 35.13299949 -29.73400103 35.13299949 -32 34 C-31.67 33.01 -31.34 32.02 -31 31 C-31.66 30.67 -32.32 30.34 -33 30 C-33 23.73 -33 17.46 -33 11 C-32.67 11 -32.34 11 -32 11 C-32 16.94 -32 22.88 -32 29 C-27.93646364 28.91303133 -23.87513058 28.80613329 -19.8125 28.6875 C-18.66201172 28.66494141 -17.51152344 28.64238281 -16.32617188 28.61914062 C-15.21435547 28.58369141 -14.10253906 28.54824219 -12.95703125 28.51171875 C-11.42526245 28.47244263 -11.42526245 28.47244263 -9.86254883 28.43237305 C-6.59199482 27.93837295 -4.6615884 26.93588946 -2 25 C-0.35686789 21.71373578 -0.88831649 18.34020207 -1.1875 14.75 C-1.91108997 12.70998466 -1.91108997 12.70998466 -4.5625 11.75 C-5.366875 11.5025 -6.17125 11.255 -7 11 C-6.979375 10.071875 -6.95875 9.14375 -6.9375 8.1875 C-6.84230396 4.97713989 -6.84230396 4.97713989 -8 2 C-5.09399739 0.74335022 -3.20395416 0 0 0 Z " fill="#192A3F" transform="translate(1035,468)"/>
<path d="M0 0 C0.33 0.66 0.66 1.32 1 2 C1.66 2 2.32 2 3 2 C3 25.76 3 49.52 3 74 C-3.93 74 -10.86 74 -18 74 C-18 50.24 -18 26.48 -18 2 C-17.67 2 -17.34 2 -17 2 C-17 25.43 -17 48.86 -17 73 C-12.05 73 -7.1 73 -2 73 C-2 49.57 -2 26.14 -2 2 C-1.34 2 -0.68 2 0 2 C0 1.34 0 0.68 0 0 Z " fill="#162941" transform="translate(346,357)"/>
<path d="M0 0 C4.74231076 3.70493028 8.66368616 8.61642138 10 14.5625 C10.91201154 24.9319463 10.41312434 33.72390567 3.6875 41.9375 C0.77291176 45.02462201 -1.91709567 47.1706008 -6 48.5625 C-6.99 48.2325 -7.98 47.9025 -9 47.5625 C-7.02 47.0675 -7.02 47.0675 -5 46.5625 C-5 45.9025 -5 45.2425 -5 44.5625 C-6.65 44.5625 -8.3 44.5625 -10 44.5625 C-10.33 43.9025 -10.66 43.2425 -11 42.5625 C-9.25582139 40.72652251 -7.56082877 39.24410086 -5.5 37.75 C-1.66067281 34.39058871 -0.19734639 31.05739894 0.46875 26.01171875 C0.53620503 17.89182001 -0.01262215 12.13515152 -5 5.5625 C-4.67 5.2325 -4.34 4.9025 -4 4.5625 C-4.99 3.9025 -5.98 3.2425 -7 2.5625 C-2.64944649 -0.57956642 -2.64944649 -0.57956642 0 0 Z " fill="#1C2C41" transform="translate(1099,453.4375)"/>
<path d="M0 0 C6.6 0 13.2 0 20 0 C20 21.45 20 42.9 20 65 C18.515 65.495 18.515 65.495 17 66 C16.17333369 62.39589047 15.87798156 59.07801993 15.88647461 55.38354492 C15.88655014 54.28278122 15.88662567 53.18201752 15.88670349 52.04789734 C15.89186478 50.8706459 15.89702606 49.69339447 15.90234375 48.48046875 C15.9037587 47.26676102 15.90517365 46.05305328 15.90663147 44.80256653 C15.91222335 40.93085248 15.92477442 37.05919653 15.9375 33.1875 C15.94251605 30.56054771 15.94707877 27.93359451 15.95117188 25.30664062 C15.96219013 18.87107141 15.97944925 12.43554555 16 6 C11.05 6 6.1 6 1 6 C1 26.46 1 46.92 1 68 C7.27 68 13.54 68 20 68 C20 68.33 20 68.66 20 69 C13.4 69 6.8 69 0 69 C0 46.23 0 23.46 0 0 Z " fill="#112134" transform="translate(464,362)"/>
<path d="M0 0 C6.6 0 13.2 0 20 0 C20 13.2 20 26.4 20 40 C19.67 40 19.34 40 19 40 C19 28.45 19 16.9 19 5 C14.38 5 9.76 5 5 5 C5.33 22.49 5.66 39.98 6 58 C1.32929652 53.32929652 -0.14072919 49.2684749 -0.34057617 42.79907227 C-0.34010568 40.80478718 -0.32342372 38.81045884 -0.29296875 36.81640625 C-0.28872391 35.76090073 -0.28447906 34.7053952 -0.28010559 33.61790466 C-0.26339049 30.26583729 -0.22575088 26.9143839 -0.1875 23.5625 C-0.17244393 21.28190976 -0.15875714 19.00131004 -0.14648438 16.72070312 C-0.11351034 11.14690093 -0.06177702 5.57355436 0 0 Z " fill="#132438" transform="translate(379,363)"/>
<path d="M0 0 C6.6 0 13.2 0 20 0 C20 22.44 20 44.88 20 68 C13.4 68 6.8 68 0 68 C0 45.56 0 23.12 0 0 Z M3 5 C3 25.46 3 45.92 3 67 C8.28 67 13.56 67 19 67 C19 46.54 19 26.08 19 5 C13.72 5 8.44 5 3 5 Z " fill="#0F1E2F" transform="translate(557,363)"/>
<path d="M0 0 C6.27 0 12.54 0 19 0 C19 5.61 19 11.22 19 17 C24.94 17 30.88 17 37 17 C37 21.95 37 26.9 37 32 C31.06 32 25.12 32 19 32 C19 31.01 19 30.02 19 29 C22.96 29 26.92 29 31 29 C31 26.36 31 23.72 31 21 C25.72 21 20.44 21 15 21 C15 15.72 15 10.44 15 5 C10.38 5 5.76 5 1 5 C1 8.96 1 12.92 1 17 C0.67 17 0.34 17 0 17 C0 11.39 0 5.78 0 0 Z " fill="#122237" transform="translate(505,347)"/>
<path d="M0 0 C4.92170329 2.10400499 6.94944619 4.81585708 9.04296875 9.6796875 C9.63671875 11.38671875 9.63671875 11.38671875 9.63671875 12.38671875 C-0.92328125 12.38671875 -11.48328125 12.38671875 -22.36328125 12.38671875 C-22.69328125 10.73671875 -23.02328125 9.08671875 -23.36328125 7.38671875 C-22.07392206 6.23828952 -20.78171546 5.09305648 -19.48828125 3.94921875 C-18.40933594 2.99208984 -18.40933594 2.99208984 -17.30859375 2.015625 C-12.50505665 -2.0066139 -5.85573706 -1.51958796 0 0 Z " fill="#F8FAF8" transform="translate(1076.36328125,377.61328125)"/>
<path d="M0 0 C27.06 0 54.12 0 82 0 C82 1.32 82 2.64 82 4 C54.61 4 27.22 4 -1 4 C-0.67 2.68 -0.34 1.36 0 0 Z " fill="#162637" transform="translate(896,475)"/>
<path d="M0 0 C2.97 0.495 2.97 0.495 6 1 C6 1.66 6 2.32 6 3 C-0.93 5.97 -0.93 5.97 -8 9 C-8.02712325 11.87506421 -8.04689851 14.74986908 -8.0625 17.625 C-8.07087891 18.43324219 -8.07925781 19.24148438 -8.08789062 20.07421875 C-8.10594087 24.51457846 -7.82882766 28.6209184 -7 33 C-7 35.33333333 -7 37.66666667 -7 40 C-6.7471414 42.40021162 -6.44935154 44.78867394 -6.12109375 47.1796875 C-6.08113281 47.78039062 -6.04117188 48.38109375 -6 49 C-7 50 -7 50 -9.06640625 50.09765625 C-9.89011719 50.08605469 -10.71382812 50.07445312 -11.5625 50.0625 C-12.38878906 50.05347656 -13.21507812 50.04445313 -14.06640625 50.03515625 C-14.70449219 50.02355469 -15.34257813 50.01195312 -16 50 C-16.14468027 43.34470749 -15.67728729 36.77270187 -14.5 30.21484375 C-13.89939265 26.35312621 -13.6525497 22.52409786 -13.4375 18.625 C-13.39431641 17.88894531 -13.35113281 17.15289062 -13.30664062 16.39453125 C-13.20156201 14.59651932 -13.10037907 12.79828042 -13 11 C-12.34 11 -11.68 11 -11 11 C-11 10.01 -11 9.02 -11 8 C-10.34 8 -9.68 8 -9 8 C-9 7.34 -9 6.68 -9 6 C-6.03 5.34 -3.06 4.68 0 4 C0 2.68 0 1.36 0 0 Z " fill="#DCB033" transform="translate(622,289)"/>
<path d="M0 0 C10.89 0 21.78 0 33 0 C33 0.33 33 0.66 33 1 C19.635 1.495 19.635 1.495 6 2 C4.8604426 4.27911479 4.85270195 5.60514526 4.81054688 8.13916016 C4.79382935 8.99410065 4.77711182 9.84904114 4.7598877 10.72988892 C4.74631226 11.6569162 4.73273682 12.58394348 4.71875 13.5390625 C4.70034058 14.49388519 4.68193115 15.44870789 4.66296387 16.4324646 C4.60410887 19.49657924 4.55139905 22.56075179 4.5 25.625 C4.44842679 28.66781911 4.39536201 31.71056779 4.33703613 34.75326538 C4.3007311 36.64758183 4.26822311 38.54197612 4.2401123 40.43643188 C4.13944171 45.69865369 3.74946417 50.78940348 3 56 C1.515 56.495 1.515 56.495 0 57 C0 38.19 0 19.38 0 0 Z " fill="#223244" transform="translate(994,447)"/>
<path d="M0 0 C1.32 0.33 2.64 0.66 4 1 C3.67 1.99 3.34 2.98 3 4 C2.89049563 5.55855115 2.83401432 7.12113254 2.81054688 8.68334961 C2.79382935 9.63120834 2.77711182 10.57906708 2.7598877 11.5556488 C2.74631226 12.57755814 2.73273682 13.59946747 2.71875 14.65234375 C2.70034058 15.70402237 2.68193115 16.75570099 2.66296387 17.83924866 C2.60416892 21.20527518 2.5513769 24.57135256 2.5 27.9375 C2.4323423 32.36338863 2.35865107 36.78911601 2.28125 41.21484375 C2.26767456 42.23472885 2.25409912 43.25461395 2.2401123 44.30540466 C2.22339478 45.25641556 2.20667725 46.20742645 2.18945312 47.18725586 C2.17692505 48.02203964 2.16439697 48.85682343 2.15148926 49.71690369 C2.00476528 51.92818237 1.61064607 53.87443936 1 56 C2.65 56 4.3 56 6 56 C6 56.33 6 56.66 6 57 C-0.27 57 -6.54 57 -13 57 C-13 43.8 -13 30.6 -13 17 C-12.67 17 -12.34 17 -12 17 C-12 29.87 -12 42.74 -12 56 C-11.34 56 -10.68 56 -10 56 C-10 41.15 -10 26.3 -10 11 C-9.34 11 -8.68 11 -8 11 C-8 25.85 -8 40.7 -8 56 C-5.36 56 -2.72 56 0 56 C0 37.52 0 19.04 0 0 Z " fill="#112135" transform="translate(744,374)"/>
<path d="M0 0 C3.3042077 0.40051002 5.68746443 1.30140084 8.5 3 C13.65265502 6.05835008 19.04021633 6.77332833 25 6 C29.68771918 4.5324796 33.91110752 2.72592832 38 0 C38.99 0 39.98 0 41 0 C40.76156231 3.21890879 39.79877962 4.20625089 37.5 6.5625 C31.40092203 11.25632723 24.36980482 12.64178848 16.78125 12.41796875 C10.63054131 11.49363472 5.68622378 8.72637196 1.375 4.3125 C0 2 0 2 0 0 Z " fill="#FDFADA" transform="translate(540,312)"/>
<path d="M0 0 C0.66 0 1.32 0 2 0 C2.33 20.13 2.66 40.26 3 61 C9.93 61.495 9.93 61.495 17 62 C17 46.82 17 31.64 17 16 C18.32 16.33 19.64 16.66 21 17 C20.67854004 17.96494385 20.35708008 18.9298877 20.02587891 19.92407227 C18.7656199 24.35469854 18.65074237 28.63158033 18.5859375 33.21484375 C18.56657135 34.07058487 18.5472052 34.92632599 18.5272522 35.80799866 C18.46789086 38.51773383 18.42124634 41.2275125 18.375 43.9375 C18.33678015 45.78452284 18.29772613 47.63152861 18.2578125 49.47851562 C18.16066868 53.98558388 18.0807569 58.49248973 18 63 C11.73 63 5.46 63 -1 63 C-0.67 42.21 -0.34 21.42 0 0 Z " fill="#13253A" transform="translate(950,368)"/>
<path d="M0 0 C0.33 0 0.66 0 1 0 C1 5.94 1 11.88 1 18 C5.08356928 17.8592905 9.16677636 17.71265147 13.25 17.5625 C14.98830078 17.50352539 14.98830078 17.50352539 16.76171875 17.44335938 C17.87675781 17.40146484 18.99179687 17.35957031 20.140625 17.31640625 C21.68024902 17.26141968 21.68024902 17.26141968 23.25097656 17.20532227 C25.63610887 17.02717872 27.71299499 16.67222637 30 16 C29.67 17.32 29.34 18.64 29 20 C30.65 19.67 32.3 19.34 34 19 C34.66 19.99 35.32 20.98 36 22 C29.32572707 25.79153425 23.18879243 25.18712864 15.6875 24.75 C14.49576172 24.69714844 13.30402344 24.64429688 12.07617188 24.58984375 C3.32493903 24.16246952 3.32493903 24.16246952 1 23 C1.33 22.01 1.66 21.02 2 20 C1.34 19.67 0.68 19.34 0 19 C0 12.73 0 6.46 0 0 Z " fill="#2C3D51" transform="translate(1002,479)"/>
<path d="M0 0 C0.33 0 0.66 0 1 0 C1 23.43 1 46.86 1 71 C5.95 71 10.9 71 16 71 C16 67.7 16 64.4 16 61 C16.33 62.32 16.66 63.64 17 65 C17.99 65 18.98 65 20 65 C20 43.55 20 22.1 20 0 C20.33 0 20.66 0 21 0 C21 23.76 21 47.52 21 72 C14.07 72 7.14 72 0 72 C0 48.24 0 24.48 0 0 Z " fill="#0C1A29" transform="translate(328,359)"/>
<path d="M0 0 C25.41 0 50.82 0 77 0 C77 0.33 77 0.66 77 1 C52.91 1 28.82 1 4 1 C4 3.97 4 6.94 4 10 C9.61 10 15.22 10 21 10 C16.77746115 12.11126943 14.85998477 12.2171997 10.25 12.125 C9.07953125 12.10695313 7.9090625 12.08890625 6.703125 12.0703125 C5.36507813 12.03550781 5.36507813 12.03550781 4 12 C4 12.66 4 13.32 4 14 C11.92 14.33 19.84 14.66 28 15 C28 15.33 28 15.66 28 16 C18.76 16 9.52 16 0 16 C0 10.72 0 5.44 0 0 Z " fill="#112134" transform="translate(300,342)"/>
<path d="M0 0 C0.02716824 2.54173977 0.04691969 5.08318415 0.0625 7.625 C0.07087891 8.33785156 0.07925781 9.05070312 0.08789062 9.78515625 C0.10714674 13.98298876 -0.21796721 17.8598264 -1 22 C-1.20419313 23.78984102 -1.39284981 25.58155513 -1.5625 27.375 C-1.64628906 28.24898438 -1.73007812 29.12296875 -1.81640625 30.0234375 C-1.87699219 30.67570312 -1.93757812 31.32796875 -2 32 C-2.33 32 -2.66 32 -3 32 C-3.10731538 22.60394198 -2.99263429 13.35912329 -2 4 C-5.18234105 5.75454385 -5.18234105 5.75454385 -8 8 C-8.18623791 10.20529338 -8.32349994 12.4147947 -8.4375 14.625 C-9.20395296 26.21612709 -9.20395296 26.21612709 -12.25 30.9375 C-14.82617527 32.50160642 -17.05702688 32.19619821 -20 32 C-19.21625 31.38125 -18.4325 30.7625 -17.625 30.125 C-14.09924956 27.56693335 -14.09924956 27.56693335 -12.68115234 23.75341797 C-12.64973145 22.84221191 -12.61831055 21.93100586 -12.5859375 20.9921875 C-12.54726563 20.00605469 -12.50859375 19.01992188 -12.46875 18.00390625 C-12.42234375 16.45509766 -12.42234375 16.45509766 -12.375 14.875 C-12.31699219 13.31458984 -12.31699219 13.31458984 -12.2578125 11.72265625 C-12.16335234 9.14861689 -12.07778786 6.57458845 -12 4 C-10.3767313 3.3291288 -8.75132422 2.66342971 -7.125 2 C-6.22007812 1.62875 -5.31515625 1.2575 -4.3828125 0.875 C-2 0 -2 0 0 0 Z " fill="#FDF5C5" transform="translate(609,300)"/>
<path d="M0 0 C1.08764648 -0.02416992 1.08764648 -0.02416992 2.19726562 -0.04882812 C7.36942026 -0.05347516 10.93543309 1.00201468 15.5625 3.3125 C15.2325 4.3025 14.9025 5.2925 14.5625 6.3125 C4.6625 6.3125 -5.2375 6.3125 -15.4375 6.3125 C-15.1075 4.9925 -14.7775 3.6725 -14.4375 2.3125 C-9.73675307 0.03093562 -5.11370706 -0.02260702 0 0 Z " fill="#1B2B40" transform="translate(722.4375,361.6875)"/>
<path d="M0 0 C0.66 0 1.32 0 2 0 C2 0.66 2 1.32 2 2 C8.6 2 15.2 2 22 2 C22 2.33 22 2.66 22 3 C16.39 3 10.78 3 5 3 C5 12.57 5 22.14 5 32 C4.34 31.67 3.68 31.34 3 31 C2.01 33.475 2.01 33.475 1 36 C1.99 36.33 2.98 36.66 4 37 C4 37.66 4 38.32 4 39 C2.68 39 1.36 39 0 39 C0 26.13 0 13.26 0 0 Z " fill="#2F4053" transform="translate(520,377)"/>
<path d="M0 0 C16.5 0 33 0 50 0 C50 0.33 50 0.66 50 1 C33.99927319 2.11586638 18.03391014 2.10778821 2 2 C2 4.64 2 7.28 2 10 C19.49 10 36.98 10 55 10 C55 10.33 55 10.66 55 11 C50.43743587 11.88696951 46.11364908 12.12879442 41.46875 12.1328125 C40.75577759 12.13376923 40.04280518 12.13472595 39.30822754 12.13571167 C37.80216381 12.13638941 36.2960971 12.13456355 34.79003906 12.13037109 C32.53443467 12.12508076 30.27903525 12.13029677 28.0234375 12.13671875 C18.96771323 12.14044846 10.02659824 11.79063779 1 11 C1 12.65 1 14.3 1 16 C0.67 16 0.34 16 0 16 C0 10.72 0 5.44 0 0 Z " fill="#101F35" transform="translate(766,342)"/>
<path d="M0 0 C2.31 0.66 4.62 1.32 7 2 C7 2.66 7 3.32 7 4 C8.13888672 4.19916016 8.13888672 4.19916016 9.30078125 4.40234375 C10.29464844 4.57894531 11.28851562 4.75554687 12.3125 4.9375 C13.79169922 5.19853516 13.79169922 5.19853516 15.30078125 5.46484375 C18 6 18 6 21 7 C24.87089335 7.23420597 28.7477728 7.18518385 32.625 7.1875 C33.68074219 7.19974609 34.73648438 7.21199219 35.82421875 7.22460938 C43.75366052 7.23934811 51.01013684 6.45146183 58.375 3.375 C62 2 62 2 65 2 C65 1.34 65 0.68 65 0 C65.99 0.33 66.98 0.66 68 1 C53.3615114 11.09138315 35.2570584 11.87273214 18 9.375 C11.92490082 8.04426399 6.27690963 5.247329 1 2 C0.67 1.34 0.34 0.68 0 0 Z " fill="#DFB332" transform="translate(527,327)"/>
<path d="M0 0 C0 3.96 0 7.92 0 12 C23.43 12 46.86 12 71 12 C71 12.33 71 12.66 71 13 C46.25 13 21.5 13 -4 13 C-4 9.04 -4 5.08 -4 1 C-1 0 -1 0 0 0 Z " fill="#101C28" transform="translate(768,418)"/>
<path d="M0 0 C8.36179596 4.80952942 8.36179596 4.80952942 9.7109375 7.5078125 C5.48210784 6.18277921 1.45052275 4.89935763 -2.4765625 2.8203125 C-6.41296679 0.98332383 -9.358459 0.85499118 -13.5222168 2.26293945 C-16.05256359 3.29519125 -18.54748513 4.38527536 -21.0390625 5.5078125 C-22.74087651 6.26078252 -24.44394336 7.01092931 -26.1484375 7.7578125 C-26.89577148 8.09296875 -27.64310547 8.428125 -28.41308594 8.7734375 C-30.2890625 9.5078125 -30.2890625 9.5078125 -32.2890625 9.5078125 C-32.2890625 8.8478125 -32.2890625 8.1878125 -32.2890625 7.5078125 C-28.93347355 5.22601201 -25.35886697 3.54191203 -21.6640625 1.8828125 C-20.72304688 1.45742188 -19.78203125 1.03203125 -18.8125 0.59375 C-12.32214386 -2.19931348 -6.57386638 -2.98244294 0 0 Z " fill="#FDF9CF" transform="translate(569.2890625,262.4921875)"/>
<path d="M0 0 C0 0.66 0 1.32 0 2 C-8.11388044 3.21521251 -15.85351368 2.76299944 -24 2 C-24 1.34 -24 0.68 -24 0 C-24.99 -0.33 -25.98 -0.66 -27 -1 C-17.90988329 -3.64439759 -8.7541387 -4.37706935 0 0 Z " fill="#2B3B4F" transform="translate(1005,364)"/>
<path d="M0 0 C1.32 0.33 2.64 0.66 4 1 C3.67 1.99 3.34 2.98 3 4 C2.89535119 5.55867938 2.84423206 7.12126275 2.82641602 8.68334961 C2.81292618 9.63120834 2.79943634 10.57906708 2.78553772 11.5556488 C2.77509933 12.57755814 2.76466095 13.59946747 2.75390625 14.65234375 C2.72097445 16.81185311 2.68776269 18.97135822 2.65429688 21.13085938 C2.60683588 24.53895199 2.56239044 27.94702653 2.52319336 31.35522461 C2.48351416 34.6419454 2.43196624 37.92831559 2.37890625 41.21484375 C2.3704921 42.23472885 2.36207794 43.25461395 2.35340881 44.30540466 C2.33676682 45.25641556 2.32012482 46.20742645 2.30297852 47.18725586 C2.28751732 48.43943153 2.28751732 48.43943153 2.27174377 49.71690369 C2 52 2 52 0 56 C0 37.52 0 19.04 0 0 Z " fill="#14273F" transform="translate(744,374)"/>
<path d="M0 0 C0.91523437 -0.00128906 1.83046875 -0.00257813 2.7734375 -0.00390625 C3.72734375 -0.00003906 4.68125 0.00382812 5.6640625 0.0078125 C7.08332031 0.00201172 7.08332031 0.00201172 8.53125 -0.00390625 C9.4490625 -0.00261719 10.366875 -0.00132812 11.3125 0 C12.14700684 0.00112793 12.98151367 0.00225586 13.84130859 0.00341797 C16.40566146 0.13897622 18.7864229 0.57065366 21.2890625 1.1328125 C20.9590625 2.1228125 20.6290625 3.1128125 20.2890625 4.1328125 C15.99752228 4.2195687 11.70620582 4.2731214 7.4140625 4.3203125 C5.57908203 4.35801758 5.57908203 4.35801758 3.70703125 4.39648438 C1.95712891 4.41098633 1.95712891 4.41098633 0.171875 4.42578125 C-1.44630127 4.44934692 -1.44630127 4.44934692 -3.09716797 4.47338867 C-3.95971191 4.36099854 -4.82225586 4.2486084 -5.7109375 4.1328125 C-6.3709375 3.1428125 -7.0309375 2.1528125 -7.7109375 1.1328125 C-4.8300498 0.1725166 -2.99322577 0.00405665 0 0 Z " fill="#1E3044" transform="translate(621.7109375,361.8671875)"/>
<path d="M0 0 C6.6 0 13.2 0 20 0 C20 1.32 20 2.64 20 4 C16.96570323 5.51714839 13.82398333 5.14363916 10.5 5.125 C9.81035156 5.12886719 9.12070312 5.13273437 8.41015625 5.13671875 C3.25333293 5.12666646 3.25333293 5.12666646 1 4 C0.67 2.68 0.34 1.36 0 0 Z " fill="#29394B" transform="translate(464,362)"/>
<path d="M0 0 C2.16874252 0.50603992 3.99967627 0.99983813 6 2 C7.5377749 2.02785759 9.07707297 1.98884089 10.61328125 1.9140625 C11.53173828 1.87023437 12.45019531 1.82640625 13.39648438 1.78125 C14.35876953 1.7296875 15.32105469 1.678125 16.3125 1.625 C17.26318359 1.58117187 18.21386719 1.53734375 19.19335938 1.4921875 C24.45475607 1.25374054 24.45475607 1.25374054 29.63745117 0.39208984 C32 0 32 0 34.8125 1.375 C35.534375 1.91125 36.25625 2.4475 37 3 C37 3.33 37 3.66 37 4 C24.13 4 11.26 4 -2 4 C-1.34 2.68 -0.68 1.36 0 0 Z " fill="#122238" transform="translate(1053,364)"/>
<path d="M0 0 C5.83585617 0.52105859 10.60443457 1.76337672 16 4 C17.4540625 4.5259375 17.4540625 4.5259375 18.9375 5.0625 C21 6 21 6 22 8 C22.15266612 9.73868744 22.24932596 11.48247501 22.31640625 13.2265625 C22.35830078 14.2578125 22.40019531 15.2890625 22.44335938 16.3515625 C22.48267578 17.43179687 22.52199219 18.51203125 22.5625 19.625 C22.60568359 20.71296875 22.64886719 21.8009375 22.69335938 22.921875 C22.7996453 25.6144517 22.90168057 28.30712253 23 31 C22.01 30.34 21.02 29.68 20 29 C19.65942383 26.84521484 19.65942383 26.84521484 19.70703125 24.2109375 C19.71669922 23.26992188 19.72636719 22.32890625 19.73632812 21.359375 C19.76146484 20.37453125 19.78660156 19.3896875 19.8125 18.375 C19.82603516 17.38242187 19.83957031 16.38984375 19.85351562 15.3671875 C19.88894257 12.91091928 19.93833804 10.45572715 20 8 C19.25274658 7.86408447 18.50549316 7.72816895 17.7355957 7.58813477 C15.41294324 7.08878003 13.41903441 6.48430102 11.23046875 5.58984375 C10.56982422 5.32236328 9.90917969 5.05488281 9.22851562 4.77929688 C8.55498047 4.50150391 7.88144531 4.22371094 7.1875 3.9375 C6.49462891 3.65583984 5.80175781 3.37417969 5.08789062 3.08398438 C3.39032376 2.39325027 1.69493688 1.69716272 0 1 C0 0.67 0 0.34 0 0 Z " fill="#E3B328" transform="translate(504,296)"/>
<path d="M0 0 C6.93 0 13.86 0 21 0 C21 5.94 21 11.88 21 18 C20.67 18 20.34 18 20 18 C20 12.39 20 6.78 20 1 C13.73 1 7.46 1 1 1 C1 7.93 1 14.86 1 22 C-1.97 22 -4.94 22 -8 22 C-8 21.01 -8 20.02 -8 19 C-4.04 18.505 -4.04 18.505 0 18 C0 12.06 0 6.12 0 0 Z " fill="#364352" transform="translate(504,346)"/>
<path d="M0 0 C1.58206057 0.00667536 3.16410534 0.0186375 4.74609375 0.03515625 C5.55240234 0.03966797 6.35871094 0.04417969 7.18945312 0.04882812 C9.18753131 0.06065107 11.18557158 0.07858711 13.18359375 0.09765625 C13.18359375 1.74765625 13.18359375 3.39765625 13.18359375 5.09765625 C7.57359375 5.09765625 1.96359375 5.09765625 -3.81640625 5.09765625 C-4.14640625 3.77765625 -4.47640625 2.45765625 -4.81640625 1.09765625 C-3.81640625 0.09765625 -3.81640625 0.09765625 0 0 Z " fill="#16283D" transform="translate(685.81640625,362.90234375)"/>
<path d="M0 0 C3.96655624 0.63748225 5.64979467 1.79866453 8.5 4.5625 C8.17 5.8825 7.84 7.2025 7.5 8.5625 C6.778125 8.2325 6.05625 7.9025 5.3125 7.5625 C0.40242197 5.81669448 -2.81468235 6.4206405 -7.5 8.5625 C-7.83 7.5725 -8.16 6.5825 -8.5 5.5625 C-5.75194049 2.23151878 -4.33784855 0.69715423 0 0 Z " fill="#FDF4BA" transform="translate(576.5,289.4375)"/>
<path d="M0 0 C-0.01160156 0.67804688 -0.02320313 1.35609375 -0.03515625 2.0546875 C-0.09708351 8.44204207 0.22981132 14.65969676 1 21 C-0.98 21 -2.96 21 -5 21 C-5.125 14.25 -5.125 14.25 -4 12 C-3.92966231 10.12620395 -3.9156978 8.24998898 -3.9375 6.375 C-3.94652344 5.37210937 -3.95554687 4.36921875 -3.96484375 3.3359375 C-3.97644531 2.56507813 -3.98804688 1.79421875 -4 1 C-2 0 -2 0 0 0 Z " fill="#EFAF0A" transform="translate(613,316)"/>
<path d="M0 0 C0.84304688 0.10828125 0.84304688 0.10828125 1.703125 0.21875 C14.95987402 1.68268547 28.76612005 1.6997644 42 0 C35.1941963 4.53720246 27.17916012 4.40972687 19.25 4.6875 C17.70892578 4.75807617 17.70892578 4.75807617 16.13671875 4.83007812 C7.86652412 5.15894506 7.86652412 5.15894506 4 4 C4 3.34 4 2.68 4 2 C2.68 1.34 1.36 0.68 0 0 Z " fill="#FDF1B3" transform="translate(540,335)"/>
<path d="M0 0 C2.5 1.75 2.5 1.75 4 4 C4 5.32 4 6.64 4 8 C3.29875 7.67 2.5975 7.34 1.875 7 C-2.90461486 5.33752527 -7.14265824 5.85709606 -12 7 C-11.62120265 4.80297535 -11.09789619 3.16124078 -9.9375 1.25 C-6.81113907 -0.76700705 -3.54607344 -0.64928105 0 0 Z " fill="#FDF5BD" transform="translate(549,290)"/>
<path d="M0 0 C1.32 0.33 2.64 0.66 4 1 C3.67854004 1.96494385 3.35708008 2.9298877 3.02587891 3.92407227 C1.7656199 8.35469854 1.65074237 12.63158033 1.5859375 17.21484375 C1.56657135 18.07058487 1.5472052 18.92632599 1.5272522 19.80799866 C1.46789086 22.51773383 1.42124634 25.2275125 1.375 27.9375 C1.33678015 29.78452284 1.29772613 31.63152861 1.2578125 33.47851562 C1.16066868 37.98558388 1.0807569 42.49248973 1 47 C-5.27 47 -11.54 47 -18 47 C-18 45.35 -18 43.7 -18 42 C-17.34 42.99 -16.68 43.98 -16 45 C-10.72 45.33 -5.44 45.66 0 46 C0 30.82 0 15.64 0 0 Z " fill="#0D1C2B" transform="translate(967,384)"/>
<path d="M0 0 C1.2065625 0.0309375 1.2065625 0.0309375 2.4375 0.0625 C1.5625 4.8125 1.5625 4.8125 0.4375 7.0625 C0.22058608 8.43456521 0.04826837 9.81389272 -0.09765625 11.1953125 C-0.18466797 12.00097656 -0.27167969 12.80664062 -0.36132812 13.63671875 C-0.44833984 14.47847656 -0.53535156 15.32023437 -0.625 16.1875 C-0.71587891 17.03699219 -0.80675781 17.88648438 -0.90039062 18.76171875 C-1.1245368 20.8616145 -1.34396448 22.96201293 -1.5625 25.0625 C-3.5625 23.0625 -3.5625 23.0625 -3.80541992 20.83178711 C-3.80131104 19.9269458 -3.79720215 19.02210449 -3.79296875 18.08984375 C-3.79103516 17.10822266 -3.78910156 16.12660156 -3.78710938 15.11523438 C-3.77486328 14.08720703 -3.76261719 13.05917969 -3.75 12 C-3.74935547 10.96810547 -3.74871094 9.93621094 -3.74804688 8.87304688 C-3.69607706 0.09014822 -3.69607706 0.09014822 0 0 Z " fill="#17263A" transform="translate(611.5625,383.9375)"/>
<path d="M0 0 C0.33 0.33 0.66 0.66 1 1 C2.7559663 1.13340015 4.51683432 1.20343476 6.27734375 1.24609375 C7.88319336 1.29540039 7.88319336 1.29540039 9.52148438 1.34570312 C11.79482297 1.40679341 14.0682665 1.46409864 16.34179688 1.51757812 C17.41365234 1.55173828 18.48550781 1.58589844 19.58984375 1.62109375 C20.57847412 1.6461499 21.56710449 1.67120605 22.58569336 1.69702148 C25 2 25 2 27 4 C15.78 4 4.56 4 -7 4 C-7 3.01 -7 2.02 -7 1 C-4.51588385 -0.24205807 -2.74800896 -0.14092354 0 0 Z " fill="#132339" transform="translate(884,364)"/>
<path d="M0 0 C0.7425 0.0825 1.485 0.165 2.25 0.25 C2.25 0.91 2.25 1.57 2.25 2.25 C5.08339965 2.27724423 7.91653117 2.29695589 10.75 2.3125 C11.54148437 2.32087891 12.33296875 2.32925781 13.1484375 2.33789062 C18.27761717 2.35891185 23.17336106 1.98937287 28.25 1.25 C28.745 2.24 28.745 2.24 29.25 3.25 C25.68072615 4.43975795 22.45053028 4.37478155 18.73828125 4.34765625 C18.01005661 4.3462413 17.28183197 4.34482635 16.53153992 4.34336853 C14.20848461 4.33777659 11.88552612 4.32522562 9.5625 4.3125 C7.98632952 4.30748396 6.41015752 4.30292123 4.83398438 4.29882812 C0.97261902 4.2878098 -2.88867408 4.27055074 -6.75 4.25 C-3.09375 0.28125 -3.09375 0.28125 0 0 Z " fill="#122237" transform="translate(978.75,363.75)"/>
<path d="M0 0 C0.66 0 1.32 0 2 0 C1.67 6.27 1.34 12.54 1 19 C1.66 19 2.32 19 3 19 C3.11138159 24.45769811 2.91657981 29.61509359 2 35 C-0.2777513 31.58337305 -0.19525983 30.42560539 -0.0625 26.4375 C0.16808697 22.56909707 0.16808697 22.56909707 -1 19 C-1.09466261 17.63667984 -1.13072175 16.26894483 -1.1328125 14.90234375 C-1.13410156 14.10119141 -1.13539063 13.30003906 -1.13671875 12.47460938 C-1.13285156 11.63736328 -1.12898437 10.80011719 -1.125 9.9375 C-1.12886719 9.09638672 -1.13273438 8.25527344 -1.13671875 7.38867188 C-1.12662682 1.12662682 -1.12662682 1.12662682 0 0 Z " fill="#FDF7CB" transform="translate(614,297)"/>
<path d="M0 0 C2.97 0.495 2.97 0.495 6 1 C6 1.66 6 2.32 6 3 C-0.93 5.97 -0.93 5.97 -8 9 C-8.33 14.94 -8.66 20.88 -9 27 C-9.66 27 -10.32 27 -11 27 C-11 20.73 -11 14.46 -11 8 C-10.34 8 -9.68 8 -9 8 C-9 7.34 -9 6.68 -9 6 C-4.545 5.01 -4.545 5.01 0 4 C0 2.68 0 1.36 0 0 Z " fill="#E2B73C" transform="translate(622,289)"/>
<path d="M0 0 C0 5.61 0 11.22 0 17 C-13.86 16.505 -13.86 16.505 -28 16 C-28 15.67 -28 15.34 -28 15 C-19.09 15 -10.18 15 -1 15 C-1.33 13.68 -1.66 12.36 -2 11 C-4.31 11 -6.62 11 -9 11 C-9 10.67 -9 10.34 -9 10 C-6.69 10 -4.38 10 -2 10 C-2 7.36 -2 4.72 -2 2 C-4.31 2 -6.62 2 -9 2 C-9 1.67 -9 1.34 -9 1 C-1.125 0 -1.125 0 0 0 Z " fill="#18273A" transform="translate(378,342)"/>
<path d="M0 0 C4.29 0 8.58 0 13 0 C13 0.66 13 1.32 13 2 C13.66 2 14.32 2 15 2 C15.33 3.98 15.66 5.96 16 8 C14 5 14 5 14 3 C10.25111416 1.75037139 6.92256117 1.53322341 3 2 C0.32568511 3.81163267 0.04079641 4.87761077 -1 8 C-0.29875 7.67 0.4025 7.34 1.125 7 C4.34160154 5.88118207 6.61830655 5.63242462 10 6 C11.6796875 7.51953125 11.6796875 7.51953125 13 9 C12.40832031 8.98839844 11.81664062 8.97679687 11.20703125 8.96484375 C6.95882148 8.91633238 3.16843985 9.11578549 -1 10 C-1.66 9.67 -2.32 9.34 -3 9 C-3 7.35 -3 5.7 -3 4 C-2.34 4 -1.68 4 -1 4 C-0.67 2.68 -0.34 1.36 0 0 Z " fill="#E0B229" transform="translate(538,289)"/>
<path d="M0 0 C1.17175781 0.04640625 2.34351563 0.0928125 3.55078125 0.140625 C5.32001953 0.19476563 5.32001953 0.19476563 7.125 0.25 C8.48044922 0.31960938 8.48044922 0.31960938 9.86328125 0.390625 C10.19328125 1.710625 10.52328125 3.030625 10.86328125 4.390625 C11.52328125 4.390625 12.18328125 4.390625 12.86328125 4.390625 C12.86328125 6.040625 12.86328125 7.690625 12.86328125 9.390625 C11.20713468 9.77281267 9.53871101 10.10457602 7.86328125 10.390625 C7.53328125 10.060625 7.20328125 9.730625 6.86328125 9.390625 C3.63315971 9.24038679 0.74333255 9.41099365 -2.44921875 9.953125 C-3.33609375 10.0975 -4.22296875 10.241875 -5.13671875 10.390625 C-6.13671875 9.390625 -6.13671875 9.390625 -6.38671875 7.078125 C-5.96565045 2.55164073 -4.61183056 0.5743251 0 0 Z M-5.13671875 6.390625 C-4.80671875 7.380625 -4.47671875 8.370625 -4.13671875 9.390625 C-3.45609375 9.04 -2.77546875 8.689375 -2.07421875 8.328125 C2.51237404 6.86431879 6.38208848 7.89689408 10.86328125 9.390625 C11.19328125 8.070625 11.52328125 6.750625 11.86328125 5.390625 C9.01307592 2.62678953 7.32983749 1.46560725 3.36328125 0.828125 C-0.9745673 1.52527923 -2.38865924 3.05964378 -5.13671875 6.390625 Z " fill="#DFB027" transform="translate(573.13671875,288.609375)"/>
<path d="M0 0 C4.17576168 0.68416434 7.88080407 2.01365009 11.8125 3.5625 C13.55466797 4.24505859 13.55466797 4.24505859 15.33203125 4.94140625 C16.21246094 5.29074219 17.09289062 5.64007813 18 6 C17.99887207 6.60996826 17.99774414 7.21993652 17.99658203 7.84838867 C18.00873569 10.62919974 18.06643084 13.40729507 18.125 16.1875 C18.12242187 17.14720703 18.11984375 18.10691406 18.1171875 19.09570312 C18.1459396 24.29080816 18.1459396 24.29080816 20.39355469 28.79150391 C22.1918895 30.35567226 22.1918895 30.35567226 25 32 C23.02 32.495 23.02 32.495 21 33 C21 32.34 21 31.68 21 31 C19.68 30.67 18.36 30.34 17 30 C16.67 22.74 16.34 15.48 16 8 C11.11145356 6.10783768 11.11145356 6.10783768 6.21704102 4.23095703 C1.11111111 2.22222222 1.11111111 2.22222222 0 0 Z " fill="#FDF7BE" transform="translate(506,298)"/>
<path d="M0 0 C0 1.65 0 3.3 0 5 C-5.72695683 7.71276903 -10.12957232 6.50821265 -16 5 C-15.67 4.34 -15.34 3.68 -15 3 C-12.3828125 2.1484375 -12.3828125 2.1484375 -9.125 1.375 C-7.52011719 0.98441406 -7.52011719 0.98441406 -5.8828125 0.5859375 C-3 0 -3 0 0 0 Z " fill="#243549" transform="translate(887,296)"/>
<path d="M0 0 C5.61 0 11.22 0 17 0 C17 0.99 17 1.98 17 3 C13.43954823 4.18681726 10.56191663 4.09689832 6.8125 4.0625 C5.54019531 4.05347656 4.26789063 4.04445313 2.95703125 4.03515625 C1.49330078 4.01775391 1.49330078 4.01775391 0 4 C0 2.68 0 1.36 0 0 Z " fill="#18283E" transform="translate(506,347)"/>
<path d="M0 0 C0 0.66 0 1.32 0 2 C-0.66 2 -1.32 2 -2 2 C-2 2.66 -2 3.32 -2 4 C-3.99019747 5.01936943 -5.9927542 6.01462479 -8 7 C-9.6396875 7.8353125 -9.6396875 7.8353125 -11.3125 8.6875 C-15.72377404 10.25761449 -19.37808735 10.28297424 -24 10 C-20.0380726 7.35871507 -15.81950513 5.70812262 -11.4375 3.875 C-10.56158203 3.50246094 -9.68566406 3.12992187 -8.78320312 2.74609375 C-7.94595703 2.39417969 -7.10871094 2.04226563 -6.24609375 1.6796875 C-5.47966553 1.35726074 -4.7132373 1.03483398 -3.92358398 0.70263672 C-2 0 -2 0 0 0 Z " fill="#E4B428" transform="translate(541,271)"/>
<path d="M0 0 C0.99 0.66 1.98 1.32 3 2 C1.5 4.0625 1.5 4.0625 -1 6 C-3.82406647 6.05928384 -6.20225927 5.55954815 -9 5 C-9 5.66 -9 6.32 -9 7 C-9.66 7 -10.32 7 -11 7 C-11 6.34 -11 5.68 -11 5 C-14.63 5 -18.26 5 -22 5 C-22 4.67 -22 4.34 -22 4 C-21.0821875 3.87882812 -20.164375 3.75765625 -19.21875 3.6328125 C-11.18844978 2.57873904 -11.18844978 2.57873904 -3.3125 0.75 C-1.6728125 0.37875 -1.6728125 0.37875 0 0 Z " fill="#283748" transform="translate(830,337)"/>
<path d="M0 0 C-6.625 3 -6.625 3 -10 3 C-10 10.26 -10 17.52 -10 25 C-10.66 25.33 -11.32 25.66 -12 26 C-12 18.08 -12 10.16 -12 2 C-11.01 2 -10.02 2 -9 2 C-9 1.34 -9 0.68 -9 0 C-3.375 -1.125 -3.375 -1.125 0 0 Z " fill="#E4B123" transform="translate(607,301)"/>
<path d="M0 0 C9.9 0 19.8 0 30 0 C30 1.32 30 2.64 30 4 C29.01 3.67 28.02 3.34 27 3 C24.2186346 2.90280943 21.46814773 2.86082508 18.6875 2.875 C17.56698242 2.86919922 17.56698242 2.86919922 16.42382812 2.86328125 C13.04687433 2.86921093 9.94807116 3.00866477 6.60546875 3.56640625 C3.62467771 4.06245993 2.48817715 3.62688506 0 2 C0 1.34 0 0.68 0 0 Z " fill="#142436" transform="translate(882,376)"/>
<path d="M0 0 C0.33 0 0.66 0 1 0 C1 13.53 1 27.06 1 41 C0.34 41 -0.32 41 -1 41 C-1 40.34 -1 39.68 -1 39 C-2.485 39.495 -2.485 39.495 -4 40 C-3.625 37.0625 -3.625 37.0625 -3 34 C-2.01 33.505 -2.01 33.505 -1 33 C-0.67 22.11 -0.34 11.22 0 0 Z " fill="#142539" transform="translate(431,368)"/>
<path d="M0 0 C3.02409268 3.32010175 3.40802792 5.62024495 3.375 10.0625 C3.38273438 11.10535156 3.39046875 12.14820313 3.3984375 13.22265625 C2.9608987 16.27255908 2.40300413 17.16278255 0 19 C-1.47899501 16.04200997 -1.13178874 13.3516424 -1.125 10.0625 C-1.12757813 8.81597656 -1.13015625 7.56945312 -1.1328125 6.28515625 C-1 3 -1 3 0 0 Z " fill="#28384A" transform="translate(859,386)"/>
<path d="M0 0 C-0.25018073 3.37743989 -1.25719913 4.25135369 -3.75 6.6875 C-6.76184693 8.83054493 -8.39133078 9.68158801 -12 10 C-11.67 9.34 -11.34 8.68 -11 8 C-10.34 8 -9.68 8 -9 8 C-9 7.34 -9 6.68 -9 6 C-11.31 6.33 -13.62 6.66 -16 7 C-13.37600067 5.25066712 -10.80525467 3.80267425 -8 2.375 C-7.13375 1.92898438 -6.2675 1.48296875 -5.375 1.0234375 C-3 0 -3 0 0 0 Z " fill="#FDF4B3" transform="translate(581,312)"/>
<path d="M0 0 C-1.4562545 0.67119549 -2.91507867 1.33681807 -4.375 2 C-5.59316406 2.556875 -5.59316406 2.556875 -6.8359375 3.125 C-9 4 -9 4 -11 4 C-8.6975881 6.60045875 -6.50103323 7.84739183 -3.3125 9.1875 C-2.50425781 9.53167969 -1.69601562 9.87585938 -0.86328125 10.23046875 C-0.24839844 10.48441406 0.36648438 10.73835938 1 11 C-2.55242882 12.18414294 -3.69830562 11.69535532 -7.1875 10.5625 C-8.08855469 10.27503906 -8.98960937 9.98757813 -9.91796875 9.69140625 C-10.60503906 9.46324219 -11.29210937 9.23507812 -12 9 C-13.32933579 3.56180812 -13.32933579 3.56180812 -11.9375 1.1875 C-7.98379726 -1.23573716 -4.33163179 -1.23493606 0 0 Z " fill="#FDF9D0" transform="translate(505,286)"/>
<path d="M0 0 C5.94 0.99 5.94 0.99 12 2 C12 2.99 12 3.98 12 5 C8.6853333 7.02907167 6.5684021 7.12742133 2.75 6.625 C1.85796875 6.51414062 0.9659375 6.40328125 0.046875 6.2890625 C-0.96632813 6.14597656 -0.96632813 6.14597656 -2 6 C-1.34 5.67 -0.68 5.34 0 5 C0 3.35 0 1.7 0 0 Z " fill="#2C3C4D" transform="translate(887,472)"/>
<path d="M0 0 C1.65 0 3.3 0 5 0 C4.01 0.33 3.02 0.66 2 1 C2 4.63 2 8.26 2 12 C4.64 12 7.28 12 10 12 C10 12.99 10 13.98 10 15 C6.7 15 3.4 15 0 15 C0 10.05 0 5.1 0 0 Z " fill="#0A182A" transform="translate(494,364)"/>
<path d="M0 0 C0.33 0 0.66 0 1 0 C1 2.31 1 4.62 1 7 C5.455 6.505 5.455 6.505 10 6 C10.33 4.02 10.66 2.04 11 0 C11.66 0 12.32 0 13 0 C13.625 3.375 13.625 3.375 14 7 C12 9 12 9 9.1796875 9.1953125 C8.08914063 9.17210937 6.99859375 9.14890625 5.875 9.125 C4.77929688 9.10695313 3.68359375 9.08890625 2.5546875 9.0703125 C1.71164062 9.04710937 0.86859375 9.02390625 0 9 C-1.125 2.25 -1.125 2.25 0 0 Z " fill="#FDF9D2" transform="translate(605,332)"/>
<path d="M0 0 C3.31578046 0.40191278 5.19978037 1.12639167 8.0625 2.9375 C12.92237263 5.90742216 18.4414551 6.3063228 24 7 C24 7.33 24 7.66 24 8 C17.66606918 8.34548714 12.89738492 7.29342747 7 5 C7.66 6.32 8.32 7.64 9 9 C4.5937814 7.65365543 2.56922298 5.80625626 0 2 C0 1.34 0 0.68 0 0 Z " fill="#FDF8C8" transform="translate(540,312)"/>
<path d="M0 0 C3 1 3 1 4 2 C5.67252349 2.08720828 7.34866799 2.10699405 9.0234375 2.09765625 C10.55484375 2.09282227 10.55484375 2.09282227 12.1171875 2.08789062 C13.19226563 2.07951172 14.26734375 2.07113281 15.375 2.0625 C16.44234375 2.05798828 17.5096875 2.05347656 18.609375 2.04882812 C20.5942494 2.04007868 22.57911651 2.02928716 24.56396484 2.01586914 C26.37594584 2.0040653 28.18798056 2 30 2 C29.67 2.66 29.34 3.32 29 4 C19.1 4 9.2 4 -1 4 C-0.67 2.68 -0.34 1.36 0 0 Z " fill="#0E1E34" transform="translate(708,364)"/>
<path d="M0 0 C0 0.66 0 1.32 0 2 C-1.26839526 2.50615298 -2.53983102 3.00469099 -3.8125 3.5 C-4.87404297 3.91765625 -4.87404297 3.91765625 -5.95703125 4.34375 C-8 5 -8 5 -11 5 C-11 5.66 -11 6.32 -11 7 C-16.50366792 7.32374517 -20.43672206 7.53286034 -25 4 C-21.91847536 2.97282512 -20.07980086 2.9880427 -16.875 3.125 C-12.03237967 3.18931103 -8.26984457 2.4110062 -3.77734375 0.65625 C-2 0 -2 0 0 0 Z " fill="#E3B229" transform="translate(576,320)"/>
<path d="M0 0 C0.02716824 2.54173977 0.04691969 5.08318415 0.0625 7.625 C0.07087891 8.33785156 0.07925781 9.05070312 0.08789062 9.78515625 C0.10714674 13.98298876 -0.21796721 17.8598264 -1 22 C-1.20419313 23.78984102 -1.39284981 25.58155513 -1.5625 27.375 C-1.68818359 28.68597656 -1.68818359 28.68597656 -1.81640625 30.0234375 C-1.87699219 30.67570312 -1.93757812 31.32796875 -2 32 C-2.33 32 -2.66 32 -3 32 C-3.22867275 22.10355133 -2.87387655 12.77092772 -1 3 C-2.98 3 -4.96 3 -7 3 C-2.5 0 -2.5 0 0 0 Z " fill="#FDF4BE" transform="translate(609,300)"/>
<path d="M0 0 C1.375 2.0625 1.375 2.0625 2 4 C1.34 4.66 0.68 5.32 0 6 C0 5.34 0 4.68 0 4 C-1.97536745 4.34786708 -1.97536745 4.34786708 -4 5 C-4.33 5.66 -4.66 6.32 -5 7 C-8 6 -8 6 -9.25 4.0625 C-9.4975 3.381875 -9.745 2.70125 -10 2 C-7.90034968 -2.19930064 -3.8716464 -1.07088092 0 0 Z " fill="#233447" transform="translate(857,448)"/>
<path d="M0 0 C5.61 0 11.22 0 17 0 C17 0.99 17 1.98 17 3 C13.43954823 4.18681726 10.56191663 4.09689832 6.8125 4.0625 C5.54019531 4.05347656 4.26789062 4.04445313 2.95703125 4.03515625 C1.49330078 4.01775391 1.49330078 4.01775391 0 4 C0 2.68 0 1.36 0 0 Z " fill="#172537" transform="translate(976,376)"/>
<path d="M0 0 C7.92 0 15.84 0 24 0 C24.33 0.66 24.66 1.32 25 2 C23.68 1.67 22.36 1.34 21 1 C21 1.66 21 2.32 21 3 C20.13117187 2.97679687 19.26234375 2.95359375 18.3671875 2.9296875 C17.21476563 2.91164063 16.06234375 2.89359375 14.875 2.875 C13.73804688 2.85179687 12.60109375 2.82859375 11.4296875 2.8046875 C7.94242233 3.00327891 5.2446138 3.7475199 2 5 C2.33 4.01 2.66 3.02 3 2 C2.01 2 1.02 2 0 2 C0 1.34 0 0.68 0 0 Z " fill="#152334" transform="translate(615,376)"/>
<path d="M0 0 C-3.28942366 1.33891561 -6.58189109 2.67017703 -9.875 4 C-10.81214844 4.3815625 -11.74929688 4.763125 -12.71484375 5.15625 C-13.61074219 5.5171875 -14.50664063 5.878125 -15.4296875 6.25 C-16.67081299 6.75273437 -16.67081299 6.75273437 -17.93701172 7.265625 C-20 8 -20 8 -22 8 C-21.72973633 6.0949707 -21.72973633 6.0949707 -21 4 C-18.18069906 2.83452915 -15.61182174 1.96844048 -12.6875 1.1875 C-11.91470703 0.95869141 -11.14191406 0.72988281 -10.34570312 0.49414062 C-6.44816201 -0.60172863 -3.94589536 -1.25127218 0 0 Z " fill="#FDF8CC" transform="translate(537,273)"/>
<path d="M0 0 C1.98 0.99 1.98 0.99 4 2 C4 9.59 4 17.18 4 25 C3.34 24.67 2.68 24.34 2 24 C0.80732555 18.63296499 0.94866719 13.34539165 1.0625 7.8671875 C1.00251205 5.11524023 0.62688989 2.6740772 0 0 Z " fill="#102238" transform="translate(860,385)"/>
<path d="M0 0 C5.61 0 11.22 0 17 0 C17 0.99 17 1.98 17 3 C11.39 3 5.78 3 0 3 C0 2.01 0 1.02 0 0 Z " fill="#172940" transform="translate(559,364)"/>
<path d="M0 0 C0.79921875 0.01804687 1.5984375 0.03609375 2.421875 0.0546875 C3.02515625 0.07789063 3.6284375 0.10109375 4.25 0.125 C4.58 1.115 4.91 2.105 5.25 3.125 C3.6 3.125 1.95 3.125 0.25 3.125 C0.25 3.785 0.25 4.445 0.25 5.125 C-2.72 5.125 -5.69 5.125 -8.75 5.125 C-8.75 4.135 -8.75 3.145 -8.75 2.125 C-5.68753253 0.34090198 -3.52920727 -0.10380021 0 0 Z " fill="#18273A" transform="translate(473.75,330.875)"/>
<path d="M0 0 C2.4697574 1.2747135 4.08435968 2.94830893 5.9375 5 C5.6075 5.66 5.2775 6.32 4.9375 7 C3.31169034 6.88601335 1.68682843 6.75844341 0.0625 6.625 C-0.84242187 6.55539062 -1.74734375 6.48578125 -2.6796875 6.4140625 C-5.0625 6 -5.0625 6 -7.0625 4 C-2.69886364 0 -2.69886364 0 0 0 Z " fill="#162536" transform="translate(1090.0625,410)"/>
<path d="M0 0 C0.33 0 0.66 0 1 0 C1.01458252 0.75619629 1.02916504 1.51239258 1.04418945 2.29150391 C1.11892 5.73650277 1.21549928 9.18055921 1.3125 12.625 C1.33505859 13.81480469 1.35761719 15.00460937 1.38085938 16.23046875 C1.58556432 24.58427236 1.58556432 24.58427236 5 32 C2.69 31.34 0.38 30.68 -2 30 C-1.84152588 29.29786377 -1.68305176 28.59572754 -1.51977539 27.87231445 C-0.98109408 24.89552459 -0.79208274 22.06516197 -0.68359375 19.04296875 C-0.62075195 17.37524414 -0.62075195 17.37524414 -0.55664062 15.67382812 C-0.51732422 14.52333984 -0.47800781 13.37285156 -0.4375 12.1875 C-0.39431641 11.01767578 -0.35113281 9.84785156 -0.30664062 8.64257812 C-0.20081721 5.76182969 -0.09873175 2.88099877 0 0 Z " fill="#152639" transform="translate(523,383)"/>
<path d="M0 0 C0.33 0 0.66 0 1 0 C1 5.94 1 11.88 1 18 C0.34 18.33 -0.32 18.66 -1 19 C-1.1953125 16.94921875 -1.390625 14.8984375 -1.5859375 12.84765625 C-1.79089844 11.93306641 -1.79089844 11.93306641 -2 11 C-2.66 10.67 -3.32 10.34 -4 10 C-4 7.69 -4 5.38 -4 3 C-3.01 4.485 -3.01 4.485 -2 6 C-1.34 4.02 -0.68 2.04 0 0 Z " fill="#132439" transform="translate(919,390)"/>
<path d="M0 0 C5.94 0 11.88 0 18 0 C18 0.99 18 1.98 18 3 C15.75006641 3.02707139 13.50003905 3.04642829 11.25 3.0625 C9.99703125 3.07410156 8.7440625 3.08570313 7.453125 3.09765625 C4.71463499 3.02021027 2.58119707 2.82780815 0 2 C0 1.34 0 0.68 0 0 Z " fill="#17293F" transform="translate(380,364)"/>
<path d="M0 0 C5.625 5.625 5.625 5.625 6 11 C5.67 10.34 5.34 9.68 5 9 C4.34 9 3.68 9 3 9 C3 11.97 3 14.94 3 18 C2.34 18.33 1.68 18.66 1 19 C0.67 12.73 0.34 6.46 0 0 Z " fill="#132439" transform="translate(927,375)"/>
<path d="M0 0 C1.45922693 0.11409593 2.91740598 0.24165544 4.375 0.375 C5.59316406 0.47941406 5.59316406 0.47941406 6.8359375 0.5859375 C9 1 9 1 11 3 C11 4.32 11 5.64 11 7 C10.34 7 9.68 7 9 7 C8.67 7.99 8.34 8.98 8 10 C4.7 10.33 1.4 10.66 -2 11 C0.6860286 9.20931427 2.6626589 8.33944209 5.6875 7.375 C6.49574219 7.11460937 7.30398438 6.85421875 8.13671875 6.5859375 C8.75160156 6.39257812 9.36648438 6.19921875 10 6 C10 5.34 10 4.68 10 4 C9.0925 3.896875 8.185 3.79375 7.25 3.6875 C3.98038425 2.99585051 2.46282263 2.17865079 0 0 Z " fill="#FBF3C2" transform="translate(618,286)"/>
<path d="M0 0 C3.4442025 1.47021181 6.72474115 3.1876038 10 5 C10 5.33 10 5.66 10 6 C5.46015483 6.2161831 2.27535777 5.42511926 -2 4 C-4.99113435 3.55304889 -7.98686636 3.2544424 -11 3 C-6.8714721 0.24764807 -4.99533361 -0.53521432 0 0 Z " fill="#E4B731" transform="translate(564,263)"/>
<path d="M0 0 C0.33 0 0.66 0 1 0 C1 6.27 1 12.54 1 19 C-0.65 19 -2.3 19 -4 19 C-4 15.7 -4 12.4 -4 9 C-3.67 10.32 -3.34 11.64 -3 13 C-2.01 13 -1.02 13 0 13 C0 8.71 0 4.42 0 0 Z " fill="#142538" transform="translate(348,411)"/>
<path d="M0 0 C2.20409407 2.38776858 2.96644557 3.73156457 3.375 7 C2.96644557 10.26843543 2.20409407 11.61223142 0 14 C-1.75747614 9.49646738 -2.19294408 5.82360189 -2 1 C-1.34 0.67 -0.68 0.34 0 0 Z " fill="#2F3E4F" transform="translate(484,335)"/>
<path d="M0 0 C9.9 0 19.8 0 30 0 C30 0.33 30 0.66 30 1 C21.09 1 12.18 1 3 1 C2.67 3.64 2.34 6.28 2 9 C1.34 8.67 0.68 8.34 0 8 C0 5.33333333 0 2.66666667 0 0 Z " fill="#102236" transform="translate(998,448)"/>
<path d="M0 0 C2.7839183 1.39195915 2.97898997 3.15575779 4 6 C-1 4 -1 4 -6 2 C-4.68 4.31 -3.36 6.62 -2 9 C-3.65 8.67 -5.3 8.34 -7 8 C-7.33 5.69 -7.66 3.38 -8 1 C-5.26094655 -0.36952673 -3.02912668 -0.12621361 0 0 Z " fill="#E4B425" transform="translate(546,310)"/>
<path d="M0 0 C3.1875 0.3125 3.1875 0.3125 6 1 C3.46792718 3.77322262 1.59517592 4.92016394 -2.26831055 5.11352539 C-3.13238525 5.10828857 -3.99645996 5.10305176 -4.88671875 5.09765625 C-5.82451172 5.09443359 -6.76230469 5.09121094 -7.72851562 5.08789062 C-8.70498047 5.07951172 -9.68144531 5.07113281 -10.6875 5.0625 C-12.16959961 5.05573242 -12.16959961 5.05573242 -13.68164062 5.04882812 C-16.12115474 5.03704303 -18.56054689 5.02059011 -21 5 C-21 4.67 -21 4.34 -21 4 C-19.73542969 3.96261719 -18.47085937 3.92523438 -17.16796875 3.88671875 C-15.5077827 3.82106167 -13.84762778 3.75461424 -12.1875 3.6875 C-11.35412109 3.66494141 -10.52074219 3.64238281 -9.66210938 3.61914062 C-8.85966797 3.58369141 -8.05722656 3.54824219 -7.23046875 3.51171875 C-6.49207764 3.48553467 -5.75368652 3.45935059 -4.99291992 3.43237305 C-2.51626947 2.89505246 -1.74892093 1.76558582 0 0 Z " fill="#E3EBEF" transform="translate(1084,492)"/>
<path d="M0 0 C0 3.96 0 7.92 0 12 C-1.32 12 -2.64 12 -4 12 C-4 8.37 -4 4.74 -4 1 C-1 0 -1 0 0 0 Z " fill="#0F1F35" transform="translate(768,418)"/>
<path d="M0 0 C5.28 0 10.56 0 16 0 C16 0.66 16 1.32 16 2 C16.66 2.33 17.32 2.66 18 3 C13.38 3.33 8.76 3.66 4 4 C4.66 3.67 5.32 3.34 6 3 C6 2.34 6 1.68 6 1 C4.02 1.33 2.04 1.66 0 2 C0 1.34 0 0.68 0 0 Z " fill="#162437" transform="translate(704,376)"/>
<path d="M0 0 C0.99 0 1.98 0 3 0 C3.92844389 4.33273814 3.92844389 7.66726186 3 12 C1.35 11.67 -0.3 11.34 -2 11 C-1.67 10.484375 -1.34 9.96875 -1 9.4375 C0.32010877 6.21973488 0.13242105 3.4429472 0 0 Z " fill="#243347" transform="translate(1034,484)"/>
<path d="M0 0 C0.66 0.66 1.32 1.32 2 2 C1.6875 5.125 1.6875 5.125 1 9 C0.80395731 10.47805871 0.61628627 11.95725484 0.4375 13.4375 C0.2209375 15.2009375 0.2209375 15.2009375 0 17 C-0.33 17 -0.66 17 -1 17 C-1.66 12.38 -2.32 7.76 -3 3 C-2.34 3 -1.68 3 -1 3 C-0.67 2.01 -0.34 1.02 0 0 Z " fill="#0E1F33" transform="translate(1102,463)"/>
<path d="M0 0 C1.98 0 3.96 0 6 0 C5.67 2.64 5.34 5.28 5 8 C4.34 8 3.68 8 3 8 C2.67 8.66 2.34 9.32 2 10 C0.64944799 7.29889598 1 4.99210994 1 2 C0.67 1.34 0.34 0.68 0 0 Z " fill="#233244" transform="translate(888,295)"/>
<path d="M0 0 C5.61 0 11.22 0 17 0 C17 0.66 17 1.32 17 2 C13.05352382 2.98844951 9.72607036 2.96191905 5.6875 2.5625 C4.61886719 2.46066406 3.55023438 2.35882813 2.44921875 2.25390625 C1.64097656 2.17011719 0.83273437 2.08632813 0 2 C0 1.34 0 0.68 0 0 Z " fill="#182A41" transform="translate(431,364)"/>
<path d="M0 0 C5.86809507 0.52393706 10.54873741 1.76108858 16 4 C16 4.66 16 5.32 16 6 C16.99 6 17.98 6 19 6 C19 6.66 19 7.32 19 8 C12.54646385 5.94235079 6.2638737 3.57616518 0 1 C0 0.67 0 0.34 0 0 Z " fill="#DEBA48" transform="translate(504,296)"/>
<path d="M0 0 C0.99 0.33 1.98 0.66 3 1 C4.25 7.625 4.25 7.625 2 11 C0.4375 9.4375 0.4375 9.4375 -1 7 C-0.6875 3.25 -0.6875 3.25 0 0 Z " fill="#162639" transform="translate(1037,408)"/>
<path d="M0 0 C1.72985242 0.11512153 3.45888751 0.24255677 5.1875 0.375 C6.15042969 0.44460938 7.11335937 0.51421875 8.10546875 0.5859375 C11.01508938 1.00215853 13.32890774 1.79874096 16 3 C16 3.33 16 3.66 16 4 C7.42857143 5.28571429 7.42857143 5.28571429 4 4 C4 3.34 4 2.68 4 2 C2.68 1.34 1.36 0.68 0 0 Z " fill="#FDF8C9" transform="translate(540,335)"/>
<path d="M0 0 C5.94 0.99 5.94 0.99 12 2 C12 2.66 12 3.32 12 4 C7.71 4 3.42 4 -1 4 C-0.67 2.68 -0.34 1.36 0 0 Z " fill="#152539" transform="translate(868,300)"/>
<path d="M0 0 C0 0.66 0 1.32 0 2 C-0.99 2.33 -1.98 2.66 -3 3 C-3.33 3.99 -3.66 4.98 -4 6 C-1.525 6.99 -1.525 6.99 1 8 C0.01 8.495 0.01 8.495 -1 9 C-2.9453125 8.22265625 -2.9453125 8.22265625 -5.125 7.0625 C-5.84945313 6.68222656 -6.57390625 6.30195313 -7.3203125 5.91015625 C-7.87460937 5.60980469 -8.42890625 5.30945313 -9 5 C-9 4.34 -9 3.68 -9 3 C-2.25 0 -2.25 0 0 0 Z " fill="#DEB848" transform="translate(503,287)"/>
<path d="M0 0 C1.32 0 2.64 0 4 0 C4 2.64 4 5.28 4 8 C2.68 8.33 1.36 8.66 0 9 C0 6.03 0 3.06 0 0 Z " fill="#1D2D43" transform="translate(538,368)"/>
<path d="M0 0 C0 0.66 0 1.32 0 2 C-0.99 2 -1.98 2 -3 2 C-3 2.66 -3 3.32 -3 4 C-8.36000789 6.25684543 -12.1977825 7.36263859 -18 7 C-14.46588679 4.87953208 -11.05606165 4.46800711 -7 4 C-7 3.34 -7 2.68 -7 2 C-2.25 0 -2.25 0 0 0 Z " fill="#FEFBDA" transform="translate(589,332)"/>
<path d="M0 0 C0.33 0 0.66 0 1 0 C1.3434538 3.69212837 1.221621 5.60790131 -0.625 8.875 C-3 11 -3 11 -6.25 11.3125 C-7.1575 11.209375 -8.065 11.10625 -9 11 C-8.236875 10.401875 -7.47375 9.80375 -6.6875 9.1875 C-1.9476943 5.47353915 -1.9476943 5.47353915 0 0 Z " fill="#FEF9D3" transform="translate(598,321)"/>
<path d="M0 0 C0.33 0.66 0.66 1.32 1 2 C1.66 2 2.32 2 3 2 C2.34 3.65 1.68 5.3 1 7 C0.67 7 0.34 7 0 7 C-0.33 10.3 -0.66 13.6 -1 17 C-1.33 17 -1.66 17 -2 17 C-2.05398987 14.72942623 -2.09278742 12.45848712 -2.125 10.1875 C-2.14820313 8.92292969 -2.17140625 7.65835937 -2.1953125 6.35546875 C-2 3 -2 3 0 0 Z " fill="#374452" transform="translate(765,414)"/>
<path d="M0 0 C-0.66 2.64 -1.32 5.28 -2 8 C-3.32 7.67 -4.64 7.34 -6 7 C-6.99 7 -7.98 7 -9 7 C-7.88121617 5.82737096 -6.75476949 4.66204862 -5.625 3.5 C-4.68527344 2.52546875 -4.68527344 2.52546875 -3.7265625 1.53125 C-2 0 -2 0 0 0 Z " fill="#102032" transform="translate(818,360)"/>
<path d="M0 0 C0 0.66 0 1.32 0 2 C-2.25 3.75 -2.25 3.75 -5 5 C-7.25 4.3125 -7.25 4.3125 -9 3 C-9.33 2.34 -9.66 1.68 -10 1 C-9.401875 0.855625 -8.80375 0.71125 -8.1875 0.5625 C-2.61290323 -0.87096774 -2.61290323 -0.87096774 0 0 Z " fill="#142539" transform="translate(869,462)"/>
<path d="M0 0 C1.5843317 0.08768248 3.16753567 0.19587329 4.75 0.3125 C6.07257812 0.39951172 6.07257812 0.39951172 7.421875 0.48828125 C10.35415446 1.07029429 11.8402919 1.95635098 14 4 C14 4.66 14 5.32 14 6 C9.27934033 4.45730076 4.58335908 2.92205381 0 1 C0 0.67 0 0.34 0 0 Z " fill="#FBF0B4" transform="translate(579,270)"/>
<path d="M0 0 C4.05819183 0.65503282 7.53971282 1.94559121 11.3125 3.5625 C12.38113281 4.01753906 13.44976563 4.47257812 14.55078125 4.94140625 C15.76314453 5.46541016 15.76314453 5.46541016 17 6 C13.275397 7.24153433 12.52247731 6.47452539 9 5 C7.453125 4.814375 7.453125 4.814375 5.875 4.625 C3 4 3 4 1.125 1.9375 C0.75375 1.298125 0.3825 0.65875 0 0 Z " fill="#E1B12B" transform="translate(574,269)"/>
<path d="M0 0 C0.66 0.33 1.32 0.66 2 1 C2 1.66 2 2.32 2 3 C1.34 3 0.68 3 0 3 C0.2165625 3.88751953 0.2165625 3.88751953 0.4375 4.79296875 C1.40822694 8.92529941 2.27593702 12.7229762 2 17 C1.34 17.33 0.68 17.66 0 18 C-0.98357297 12.34445544 -1.37394574 6.74116691 -1 1 C-0.67 0.67 -0.34 0.34 0 0 Z " fill="#1F2F41" transform="translate(482,333)"/>
<path d="M0 0 C-0.33 1.65 -0.66 3.3 -1 5 C-2.65 5.33 -4.3 5.66 -6 6 C-5.67 5.34 -5.34 4.68 -5 4 C-4.34 4 -3.68 4 -3 4 C-3 3.34 -3 2.68 -3 2 C-5.31 2.33 -7.62 2.66 -10 3 C-6.26223701 0.50815801 -4.5227786 0 0 0 Z " fill="#FCF4C3" transform="translate(575,316)"/>
<path d="M0 0 C3.68754757 0.49831724 5.60490662 1.10067643 8 4 C7.01 4 6.02 4 5 4 C5.33 4.99 5.66 5.98 6 7 C3.00675737 5.9024777 2.15389099 5.32317108 0.75 2.375 C0.5025 1.59125 0.255 0.8075 0 0 Z " fill="#FDF4B0" transform="translate(540,312)"/>
<path d="M0 0 C0.99 0.66 1.98 1.32 3 2 C0.525 3.485 0.525 3.485 -2 5 C-1.01 5.66 -0.02 6.32 1 7 C0.01 7.66 -0.98 8.32 -2 9 C-3.65 7.68 -5.3 6.36 -7 5 C-6.01 5 -5.02 5 -4 5 C-3.67 4.01 -3.34 3.02 -3 2 C-2.01 2 -1.02 2 0 2 C0 1.34 0 0.68 0 0 Z " fill="#29394A" transform="translate(1095,451)"/>
<path d="M0 0 C2.97 0 5.94 0 9 0 C9.33 0.66 9.66 1.32 10 2 C8.02 2.33 6.04 2.66 4 3 C4.33 3.66 4.66 4.32 5 5 C2.525 4.01 2.525 4.01 0 3 C0 2.01 0 1.02 0 0 Z " fill="#162638" transform="translate(390,424)"/>
<path d="M0 0 C1.66926454 0.97473126 3.33535642 1.95489789 5 2.9375 C6.3921875 3.75541016 6.3921875 3.75541016 7.8125 4.58984375 C8.534375 5.05519531 9.25625 5.52054687 10 6 C10 6.33 10 6.66 10 7 C7.03 7 4.06 7 1 7 C1 5.68 1 4.36 1 3 C0.67 2.01 0.34 1.02 0 0 Z " fill="#122030" transform="translate(614,409)"/>
<path d="M0 0 C0.33 0 0.66 0 1 0 C1 3.96 1 7.92 1 12 C-2 9 -2 9 -2.3125 6 C-2 3 -2 3 0 0 Z " fill="#182635" transform="translate(463,336)"/>
<path d="M0 0 C0.99 0.33 1.98 0.66 3 1 C3.33 2.98 3.66 4.96 4 7 C0.7 6.01 -2.6 5.02 -6 4 C-6 3.67 -6 3.34 -6 3 C-4.02 2.67 -2.04 2.34 0 2 C0 1.34 0 0.68 0 0 Z " fill="#FCEEA2" transform="translate(549,291)"/>
<path d="M0 0 C1.5843317 0.08768248 3.16753567 0.19587329 4.75 0.3125 C6.07257812 0.39951172 6.07257812 0.39951172 7.421875 0.48828125 C10.35415446 1.07029429 11.8402919 1.95635098 14 4 C14 4.66 14 5.32 14 6 C9.27934033 4.45730076 4.58335908 2.92205381 0 1 C0 0.67 0 0.34 0 0 Z " fill="#FBF1B5" transform="translate(603,280)"/>
<path d="M0 0 C4.10958767 1.45044271 7.43258745 3.51110752 11 6 C9 7 9 7 6.6171875 6.22265625 C5.71226562 5.83980469 4.80734375 5.45695312 3.875 5.0625 C2.96492187 4.68222656 2.05484375 4.30195313 1.1171875 3.91015625 C0.41851563 3.60980469 -0.28015625 3.30945313 -1 3 C-0.67 2.01 -0.34 1.02 0 0 Z " fill="#FBF2BB" transform="translate(568,263)"/>
<path d="M0 0 C0.66 0.33 1.32 0.66 2 1 C1.67 1.99 1.34 2.98 1 4 C-4.05002222 5.03590199 -8.87416389 5.10251672 -14 5 C-14 4.67 -14 4.34 -14 4 C-13.32453125 3.87882812 -12.6490625 3.75765625 -11.953125 3.6328125 C-10.61507812 3.38144531 -10.61507812 3.38144531 -9.25 3.125 C-8.36828125 2.96257812 -7.4865625 2.80015625 -6.578125 2.6328125 C-3.99249343 2.10389584 -3.99249343 2.10389584 -1.796875 0.8671875 C-0.90742187 0.43792969 -0.90742187 0.43792969 0 0 Z " fill="#152435" transform="translate(639,412)"/>
<path d="M0 0 C0.33 0 0.66 0 1 0 C1.33 2.97 1.66 5.94 2 9 C2.66 9 3.32 9 4 9 C3.34 10.65 2.68 12.3 2 14 C-0.28062828 10.57905758 -0.21925007 9.31812778 -0.125 5.3125 C-0.10695313 4.31863281 -0.08890625 3.32476562 -0.0703125 2.30078125 C-0.04710937 1.54152344 -0.02390625 0.78226562 0 0 Z " fill="#122438" transform="translate(928,402)"/>
<path d="M0 0 C0 5.28 0 10.56 0 16 C-0.33 16 -0.66 16 -1 16 C-1 11.71 -1 7.42 -1 3 C-2.98 3 -4.96 3 -7 3 C-2.5 0 -2.5 0 0 0 Z " fill="#FDF1AB" transform="translate(609,300)"/>
<path d="M0 0 C-0.25 2.375 -0.25 2.375 -1 5 C-3.0625 6.3125 -3.0625 6.3125 -5 7 C-4.01 5.02 -3.02 3.04 -2 1 C-3.65 1.33 -5.3 1.66 -7 2 C-7 1.34 -7 0.68 -7 0 C-4.3333581 -1.33332095 -2.83319697 -0.67102033 0 0 Z " fill="#E3B62C" transform="translate(583,311)"/>
<path d="M0 0 C1.32 0.99 2.64 1.98 4 3 C3.67 4.32 3.34 5.64 3 7 C0.36 6.01 -2.28 5.02 -5 4 C-5 3.67 -5 3.34 -5 3 C-3.35 2.67 -1.7 2.34 0 2 C0 1.34 0 0.68 0 0 Z " fill="#FBED9E" transform="translate(581,291)"/>
<path d="M0 0 C0.66 0.33 1.32 0.66 2 1 C1.34 1.66 0.68 2.32 0 3 C-0.99 3 -1.98 3 -3 3 C-3 3.66 -3 4.32 -3 5 C-5.97 5.66 -8.94 6.32 -12 7 C-10.54312306 4.08624612 -8.49246097 3.64222221 -5.5625 2.3125 C-4.57378906 1.85488281 -3.58507812 1.39726562 -2.56640625 0.92578125 C-1.29603516 0.46751953 -1.29603516 0.46751953 0 0 Z " fill="#FDFEEA" transform="translate(540,267)"/>
<path d="M0 0 C3.66172475 0.62678171 6.8818995 1.64451846 10.3125 3.0625 C11.19550781 3.42472656 12.07851563 3.78695313 12.98828125 4.16015625 C13.65214844 4.43730469 14.31601562 4.71445312 15 5 C10.98491084 6.33836305 8.95879917 5.36510316 5 4 C2.0625 2.4375 2.0625 2.4375 0 1 C0 0.67 0 0.34 0 0 Z " fill="#FEFDE3" transform="translate(573,265)"/>
<path d="M0 0 C3.71888239 0.50712033 6.73454239 1.11608215 10 3 C2.375 4 2.375 4 -1 4 C-0.67 2.68 -0.34 1.36 0 0 Z " fill="#15263B" transform="translate(872,468)"/>
<path d="M0 0 C-0.33 0.99 -0.66 1.98 -1 3 C-2.32 2.67 -3.64 2.34 -5 2 C-5.33 2.99 -5.66 3.98 -6 5 C-6.99 4.34 -7.98 3.68 -9 3 C-9 2.34 -9 1.68 -9 1 C-5.92677456 0.08941469 -3.19902639 -0.08886184 0 0 Z " fill="#2E3B49" transform="translate(858,304)"/>
<path d="M0 0 C-0.33 1.32 -0.66 2.64 -1 4 C-4.63 4.33 -8.26 4.66 -12 5 C-8.45976076 2.63984051 -4.36489861 0 0 0 Z " fill="#E4B52E" transform="translate(553,266)"/>
<path d="M0 0 C0.33 0.99 0.66 1.98 1 3 C-0.65 4.32 -2.3 5.64 -4 7 C-4.66 5.35 -5.32 3.7 -6 2 C-2.25 0 -2.25 0 0 0 Z " fill="#18283C" transform="translate(857,452)"/>
<path d="M0 0 C3.63 0 7.26 0 11 0 C11 0.99 11 1.98 11 3 C9.125 3.625 9.125 3.625 7 4 C6.34 3.34 5.68 2.68 5 2 C2.42938689 1.35232207 2.42938689 1.35232207 0 1 C0 0.67 0 0.34 0 0 Z " fill="#152336" transform="translate(908,424)"/>
<path d="M0 0 C0.66 0.33 1.32 0.66 2 1 C1.360625 1.5775 0.72125 2.155 0.0625 2.75 C-1.98223868 4.98062401 -2.58205199 6.07436391 -3 9 C-4.32 9 -5.64 9 -7 9 C-5.44499019 5.18315774 -2.96404505 2.80804268 0 0 Z " fill="#152536" transform="translate(787,391)"/>
<path d="M0 0 C0.99 0.33 1.98 0.66 3 1 C3 3.64 3 6.28 3 9 C2.01 9 1.02 9 0 9 C0 6.03 0 3.06 0 0 Z " fill="#102033" transform="translate(664,392)"/>
<path d="M0 0 C2.31 0.33 4.62 0.66 7 1 C7 1.66 7 2.32 7 3 C3.7 3.33 0.4 3.66 -3 4 C-2.01 3.67 -1.02 3.34 0 3 C0 2.01 0 1.02 0 0 Z " fill="#1F2E41" transform="translate(998,363)"/>
<path d="M0 0 C0.66 0.33 1.32 0.66 2 1 C3.32 1 4.64 1 6 1 C6.33 1.99 6.66 2.98 7 4 C3.7 4 0.4 4 -3 4 C-2.67 3.01 -2.34 2.02 -2 1 C-1.34 0.67 -0.68 0.34 0 0 Z " fill="#112134" transform="translate(841,332)"/>
<path d="M0 0 C0.66 0 1.32 0 2 0 C1.67 0.99 1.34 1.98 1 3 C0.77202438 5.73289293 0.58331813 8.45042204 0.4375 11.1875 C0.39431641 11.93708984 0.35113281 12.68667969 0.30664062 13.45898438 C0.20077315 15.30578375 0.0999024 17.15286834 0 19 C-0.33 19 -0.66 19 -1 19 C-1.02683987 16.02077407 -1.04676037 13.04178705 -1.0625 10.0625 C-1.07087891 9.21236328 -1.07925781 8.36222656 -1.08789062 7.48632812 C-1.09111328 6.67744141 -1.09433594 5.86855469 -1.09765625 5.03515625 C-1.10289307 4.2862915 -1.10812988 3.53742676 -1.11352539 2.76586914 C-1 1 -1 1 0 0 Z " fill="#FEF4B3" transform="translate(614,297)"/>
<path d="M0 0 C0 0.66 0 1.32 0 2 C-1.65 1.67 -3.3 1.34 -5 1 C-5.33 1.99 -5.66 2.98 -6 4 C-7.32 2.68 -8.64 1.36 -10 0 C-6.7169902 -1.6415049 -3.57454967 -0.51888624 0 0 Z " fill="#162537" transform="translate(1056,424)"/>
<path d="M0 0 C0.66 0.99 1.32 1.98 2 3 C0.19587357 6.26460973 -0.83394693 7.88929795 -4 10 C-4 6.42188369 -3.13534858 5.73324619 -1 3 C-0.67 2.01 -0.34 1.02 0 0 Z " fill="#263544" transform="translate(645,403)"/>
<path d="M0 0 C2.0625 1.75 2.0625 1.75 4 4 C3.75 6.25 3.75 6.25 3 8 C3 7.34 3 6.68 3 6 C2.34 6 1.68 6 1 6 C0.67 7.32 0.34 8.64 0 10 C0 6.7 0 3.4 0 0 Z " fill="#1C2B3C" transform="translate(929,378)"/>
<path d="M0 0 C0.99 0.33 1.98 0.66 3 1 C3 3.31 3 5.62 3 8 C2.01 8 1.02 8 0 8 C0.33 6.02 0.66 4.04 1 2 C0.34 1.67 -0.32 1.34 -1 1 C-0.67 0.67 -0.34 0.34 0 0 Z " fill="#122236" transform="translate(597,376)"/>
<path d="M0 0 C0.66 0.33 1.32 0.66 2 1 C1.67 1.99 1.34 2.98 1 4 C1.66 4 2.32 4 3 4 C2.67 4.99 2.34 5.98 2 7 C1.01 6.67 0.02 6.34 -1 6 C-2.1875 3.4375 -2.1875 3.4375 -3 1 C-2.01 0.67 -1.02 0.34 0 0 Z " fill="#E9F0F0" transform="translate(1107,457)"/>
<path d="M0 0 C2 3 2 3 3 6 C2.67 6.66 2.34 7.32 2 8 C0.68 7.67 -0.64 7.34 -2 7 C-1.34 4.69 -0.68 2.38 0 0 Z " fill="#253548" transform="translate(851,438)"/>
<path d="M0 0 C-0.3125 2.375 -0.3125 2.375 -1 5 C-1.99 5.66 -2.98 6.32 -4 7 C-4.33 5.35 -4.66 3.7 -5 2 C-2 0 -2 0 0 0 Z " fill="#29384A" transform="translate(799,404)"/>
<path d="M0 0 C3.3 0 6.6 0 10 0 C9.01 1.485 9.01 1.485 8 3 C5.03 2.67 2.06 2.34 -1 2 C-0.67 1.34 -0.34 0.68 0 0 Z " fill="#1B2E45" transform="translate(956,364)"/>
<path d="M0 0 C0 0.66 0 1.32 0 2 C0.99 2.33 1.98 2.66 3 3 C3 3.66 3 4.32 3 5 C0.03 4.01 -2.94 3.02 -6 2 C-3 0 -3 0 0 0 Z " fill="#FBF3C3" transform="translate(600,275)"/>
<path d="M0 0 C0.66 0.99 1.32 1.98 2 3 C-1.08809695 4.76462683 -2.23312136 5 -6 5 C-5.34 3.68 -4.68 2.36 -4 1 C-2.68 1.33 -1.36 1.66 0 2 C0 1.34 0 0.68 0 0 Z " fill="#0F233B" transform="translate(1037,494)"/>
<path d="M0 0 C2.0625 0.4375 2.0625 0.4375 4 1 C4 2.65 4 4.3 4 6 C1.525 5.01 1.525 5.01 -1 4 C-1 1 -1 1 0 0 Z " fill="#1A2D43" transform="translate(866,464)"/>
<path d="M0 0 C0.99 0.33 1.98 0.66 3 1 C1.25 4.875 1.25 4.875 -1 6 C-1 5.34 -1 4.68 -1 4 C-1.66 4 -2.32 4 -3 4 C-2.67 3.01 -2.34 2.02 -2 1 C-1.34 0.67 -0.68 0.34 0 0 Z " fill="#18283A" transform="translate(800,400)"/>
<path d="M0 0 C0.33 0 0.66 0 1 0 C1 1.98 1 3.96 1 6 C-0.98 6 -2.96 6 -5 6 C-3.35830472 3.97945196 -1.69088222 1.97956942 0 0 Z " fill="#0C1C2D" transform="translate(799,378)"/>
<path d="M0 0 C1.32 0 2.64 0 4 0 C3.67 1.65 3.34 3.3 3 5 C1.68 4.34 0.36 3.68 -1 3 C-0.67 2.01 -0.34 1.02 0 0 Z " fill="#152537" transform="translate(804,372)"/>
<path d="M0 0 C0.66 0.33 1.32 0.66 2 1 C2 1.66 2 2.32 2 3 C-3.28 3 -8.56 3 -14 3 C-14 2.67 -14 2.34 -14 2 C-13.07316406 1.93941406 -12.14632812 1.87882812 -11.19140625 1.81640625 C-9.39509766 1.69072266 -9.39509766 1.69072266 -7.5625 1.5625 C-5.77005859 1.44068359 -5.77005859 1.44068359 -3.94140625 1.31640625 C-1.11429756 1.32343886 -1.11429756 1.32343886 0 0 Z " fill="#0B1B31" transform="translate(697,365)"/>
<path d="M0 0 C1.46015291 0.28241641 2.91809793 0.57626614 4.375 0.875 C5.18710937 1.03742188 5.99921875 1.19984375 6.8359375 1.3671875 C9 2 9 2 11 4 C9.54054712 3.91291331 8.08234132 3.80473093 6.625 3.6875 C5.81289063 3.62949219 5.00078125 3.57148438 4.1640625 3.51171875 C2 3 2 3 0 0 Z " fill="#EAB213" transform="translate(548,313)"/>
<path d="M0 0 C0.33 1.32 0.66 2.64 1 4 C-4.75 2.25 -4.75 2.25 -7 0 C-4.3333581 -1.33332095 -2.83319697 -0.67102033 0 0 Z " fill="#313F4D" transform="translate(613,426)"/>
<path d="M0 0 C0.99 0.495 0.99 0.495 2 1 C2.59355614 3.64860427 2.74209269 6.29197322 3 9 C2.01 9.495 2.01 9.495 1 10 C0.37542727 6.56484998 0 3.50935186 0 0 Z " fill="#283545" transform="translate(664,384)"/>
<path d="M0 0 C0.66 0 1.32 0 2 0 C3.35439668 2.70879335 3.06501451 5.00933268 3 8 C0.9375 5.6875 0.9375 5.6875 -1 3 C-0.67 2.01 -0.34 1.02 0 0 Z " fill="#253547" transform="translate(642,380)"/>
<path d="M0 0 C3 1 3 1 5 2 C5 2.66 5 3.32 5 4 C4.01 4.33 3.02 4.66 2 5 C0.68 3.68 -0.64 2.36 -2 1 C-1.34 0.67 -0.68 0.34 0 0 Z " fill="#E8EDED" transform="translate(1008,363)"/>
<path d="M0 0 C2.31 0 4.62 0 7 0 C6.34 1.65 5.68 3.3 5 5 C4.01 4.67 3.02 4.34 2 4 C2.66 4 3.32 4 4 4 C3.04134491 1.66924071 3.04134491 1.66924071 0 0 Z " fill="#162637" transform="translate(1086,424)"/>
<path d="M0 0 C1.134375 0.020625 2.26875 0.04125 3.4375 0.0625 C2.4475 0.3925 1.4575 0.7225 0.4375 1.0625 C0.4375 2.0525 0.4375 3.0425 0.4375 4.0625 C-0.5525 4.0625 -1.5425 4.0625 -2.5625 4.0625 C-2.5625 3.4025 -2.5625 2.7425 -2.5625 2.0625 C-3.2225 1.7325 -3.8825 1.4025 -4.5625 1.0625 C-3.5625 0.0625 -3.5625 0.0625 0 0 Z " fill="#142438" transform="translate(879.5625,423.9375)"/>
<path d="M0 0 C0.66 0 1.32 0 2 0 C2.66666667 1.33333333 3.33333333 2.66666667 4 4 C3.01 5.485 3.01 5.485 2 7 C1.34 7 0.68 7 0 7 C0 4.69 0 2.38 0 0 Z " fill="#122338" transform="translate(1048,385)"/>
<path d="M0 0 C1.32 0.33 2.64 0.66 4 1 C3.40138258 3.35171131 2.73075648 5.6859378 2 8 C1.01 8.495 1.01 8.495 0 9 C0 6.03 0 3.06 0 0 Z " fill="#142333" transform="translate(967,384)"/>
<path d="M0 0 C0.66 0 1.32 0 2 0 C1.67 1.98 1.34 3.96 1 6 C-0.65 6 -2.3 6 -4 6 C-3.525625 5.38125 -3.05125 4.7625 -2.5625 4.125 C-0.97582559 2.09294454 -0.97582559 2.09294454 0 0 Z " fill="#17293C" transform="translate(1030,449)"/>
<path d="M0 0 C2.475 0.495 2.475 0.495 5 1 C5 1.66 5 2.32 5 3 C5.99 3 6.98 3 8 3 C8 3.66 8 4.32 8 5 C4.5625 4.1875 4.5625 4.1875 1 3 C0.67 2.01 0.34 1.02 0 0 Z " fill="#E1B631" transform="translate(515,299)"/>
</svg>
